solid corner
facet normal -0.9701425001453325 0.24253562503633086 -1.2744386435654674e-15
  outer loop
    vertex 17.74999999999999 6.999999999999998 18.999999999999964
    vertex 16.00000000000003 9.311369992320866e-16 3.500000000000006
    vertex 16.00000000000001 -3.4349597850491274e-16 19.00000000000002
  endloop
endfacet
facet normal -0.9701425001453325 0.24253562503633086 -1.2744386435654674e-15
  outer loop
    vertex 16.00000000000003 9.311369992320866e-16 3.500000000000006
    vertex 17.74999999999999 6.999999999999998 18.999999999999964
    vertex 17.750000000000014 6.999999999999993 3.4999999999999964
  endloop
endfacet
facet normal -1.9639557464383515e-17 -1.0 -6.612158959271291e-17
  outer loop
    vertex 16.00000000000003 9.311369992320866e-16 3.500000000000006
    vertex 22.999999999999954 2.017099147957137e-32 5.0000000000000115
    vertex 16.00000000000001 -3.4349597850491274e-16 19.00000000000002
  endloop
endfacet
facet normal -1.9639557464383515e-17 -1.0 -6.612158959271291e-17
  outer loop
    vertex 22.999999999999954 2.017099147957137e-32 5.0000000000000115
    vertex 16.00000000000003 9.311369992320866e-16 3.500000000000006
    vertex 30.499999999999954 9.311369992320866e-16 3.5000000000000084
  endloop
endfacet
facet normal -1.9639557464383515e-17 -1.0 -6.612158959271291e-17
  outer loop
    vertex 22.999999999999954 2.017099147957137e-32 5.0000000000000115
    vertex 30.499999999999954 9.311369992320866e-16 3.5000000000000084
    vertex 30.499999999999954 2.017099147957137e-32 5.0000000000000115
  endloop
endfacet
facet normal -1.9639557464383515e-17 -1.0 -6.612158959271291e-17
  outer loop
    vertex 16.00000000000001 -3.4349597850491274e-16 19.00000000000002
    vertex 22.999999999999954 2.017099147957137e-32 5.0000000000000115
    vertex 22.999999999999968 -3.4349597850491274e-16 18.99999999999999
  endloop
endfacet
facet normal 0.9701425001453311 0.24253562503633685 8.134714746162502e-16
  outer loop
    vertex 12.000000000000023 9.311369992320866e-16 3.500000000000023
    vertex 10.24999999999998 7.0 19.0
    vertex 12.00000000000002 -3.4349597850491274e-16 18.99999999999999
  endloop
endfacet
facet normal 0.9701425001453311 0.24253562503633685 8.134714746162502e-16
  outer loop
    vertex 10.24999999999998 7.0 19.0
    vertex 12.000000000000023 9.311369992320866e-16 3.500000000000023
    vertex 10.250000000000014 6.999999999999962 3.500000000000002
  endloop
endfacet
facet normal 1.9739765377835292e-15 -1.0 1.409983241273955e-15
  outer loop
    vertex 17.74999999999999 6.999999999999998 18.999999999999964
    vertex 10.250000000000014 6.999999999999962 3.500000000000002
    vertex 17.750000000000014 6.999999999999993 3.4999999999999964
  endloop
endfacet
facet normal 1.9739765377835292e-15 -1.0 1.409983241273955e-15
  outer loop
    vertex 10.250000000000014 6.999999999999962 3.500000000000002
    vertex 17.74999999999999 6.999999999999998 18.999999999999964
    vertex 10.24999999999998 7.0 19.0
  endloop
endfacet
facet normal -2.76406623637653e-16 -1.0 9.893657187471866e-18
  outer loop
    vertex 12.00000000000002 -3.4349597850491274e-16 18.99999999999999
    vertex 5.000000000000001 4.862011176806702e-19 4.999999999999999
    vertex 12.000000000000023 9.311369992320866e-16 3.500000000000023
  endloop
endfacet
facet normal -2.76406623637653e-16 -1.0 9.893657187471866e-18
  outer loop
    vertex 5.000000000000001 4.862011176806702e-19 4.999999999999999
    vertex 12.00000000000002 -3.4349597850491274e-16 18.99999999999999
    vertex 4.999999999999998 -3.4349597850491274e-16 19.00000000000001
  endloop
endfacet
facet normal -2.76406623637653e-16 -1.0 9.893657187471866e-18
  outer loop
    vertex -5.499999999999998 2.7665906007785826e-15 3.500000000000011
    vertex -3.9999999999999925 5.640088549453453e-15 5.000000000000001
    vertex -5.499999999999998 5.111259748780126e-15 15.0
  endloop
endfacet
facet normal -2.76406623637653e-16 -1.0 9.893657187471866e-18
  outer loop
    vertex -3.9999999999999925 5.640088549453453e-15 5.000000000000001
    vertex -5.499999999999998 2.7665906007785826e-15 3.500000000000011
    vertex 12.000000000000023 9.311369992320866e-16 3.500000000000023
  endloop
endfacet
facet normal -2.76406623637653e-16 -1.0 9.893657187471866e-18
  outer loop
    vertex -3.9999999999999925 5.640088549453453e-15 5.000000000000001
    vertex 12.000000000000023 9.311369992320866e-16 3.500000000000023
    vertex 5.000000000000001 4.862011176806702e-19 4.999999999999999
  endloop
endfacet
facet normal -2.76406623637653e-16 -1.0 9.893657187471866e-18
  outer loop
    vertex -5.499999999999998 5.111259748780126e-15 15.0
    vertex -3.9999999999999925 5.640088549453453e-15 5.000000000000001
    vertex -3.9999999999999925 5.640088549453453e-15 15.0
  endloop
endfacet
facet normal -0.0 -0.0 1.0
  outer loop
    vertex 22.999999999999954 2.017099147957137e-32 5.0000000000000115
    vertex 24.74999999999995 3.75 5.0000000000000115
    vertex 22.999999999999954 7.499999999999999 5.0000000000000115
  endloop
endfacet
facet normal -0.0 -0.0 1.0
  outer loop
    vertex 24.74999999999995 3.75 5.0000000000000115
    vertex 22.999999999999954 2.017099147957137e-32 5.0000000000000115
    vertex 25.749999999999954 2.017949192431121 5.0000000000000115
  endloop
endfacet
facet normal -0.0 -0.0 1.0
  outer loop
    vertex 25.749999999999954 2.017949192431121 5.0000000000000115
    vertex 22.999999999999954 2.017099147957137e-32 5.0000000000000115
    vertex 30.499999999999954 2.017099147957137e-32 5.0000000000000115
  endloop
endfacet
facet normal -0.0 -0.0 1.0
  outer loop
    vertex 25.749999999999954 2.017949192431121 5.0000000000000115
    vertex 30.499999999999954 2.017099147957137e-32 5.0000000000000115
    vertex 27.749999999999954 2.017949192431121 5.0000000000000115
  endloop
endfacet
facet normal -0.0 -0.0 1.0
  outer loop
    vertex 27.749999999999954 2.017949192431121 5.0000000000000115
    vertex 30.499999999999954 2.017099147957137e-32 5.0000000000000115
    vertex 28.749999999999954 3.75 5.0000000000000115
  endloop
endfacet
facet normal -0.0 -0.0 1.0
  outer loop
    vertex 22.999999999999954 7.499999999999999 5.0000000000000115
    vertex 25.749999999999947 5.4820508075688785 5.0000000000000115
    vertex 30.49999999999996 7.500000000000009 5.0000000000000115
  endloop
endfacet
facet normal -0.0 -0.0 1.0
  outer loop
    vertex 25.749999999999947 5.4820508075688785 5.0000000000000115
    vertex 22.999999999999954 7.499999999999999 5.0000000000000115
    vertex 24.74999999999995 3.75 5.0000000000000115
  endloop
endfacet
facet normal -0.0 -0.0 1.0
  outer loop
    vertex 30.49999999999996 7.500000000000009 5.0000000000000115
    vertex 25.749999999999947 5.4820508075688785 5.0000000000000115
    vertex 27.74999999999995 5.48205080756888 5.0000000000000115
  endloop
endfacet
facet normal -0.0 -0.0 1.0
  outer loop
    vertex 30.49999999999996 7.500000000000009 5.0000000000000115
    vertex 27.74999999999995 5.48205080756888 5.0000000000000115
    vertex 28.749999999999954 3.75 5.0000000000000115
  endloop
endfacet
facet normal -0.0 -0.0 1.0
  outer loop
    vertex 30.49999999999996 7.500000000000009 5.0000000000000115
    vertex 28.749999999999954 3.75 5.0000000000000115
    vertex 30.499999999999954 2.017099147957137e-32 5.0000000000000115
  endloop
endfacet
facet normal 1.0 5.4037030278024095e-16 1.7883675630056073e-15
  outer loop
    vertex 30.499999999999954 9.311369992320866e-16 3.5000000000000084
    vertex 30.49999999999996 7.500000000000009 5.0000000000000115
    vertex 30.499999999999954 2.017099147957137e-32 5.0000000000000115
  endloop
endfacet
facet normal 1.0 5.4037030278024095e-16 1.7883675630056073e-15
  outer loop
    vertex 30.49999999999996 7.500000000000009 5.0000000000000115
    vertex 30.499999999999954 9.311369992320866e-16 3.5000000000000084
    vertex 30.499999999999932 14.699999999999973 3.499999999999995
  endloop
endfacet
facet normal 1.0 5.4037030278024095e-16 1.7883675630056073e-15
  outer loop
    vertex 30.49999999999996 7.500000000000009 5.0000000000000115
    vertex 30.499999999999932 14.700000000000063 19.00000000000001
    vertex 30.49999999999991 7.499999999999851 18.99999999999999
  endloop
endfacet
facet normal 1.0 5.4037030278024095e-16 1.7883675630056073e-15
  outer loop
    vertex 30.499999999999932 14.700000000000063 19.00000000000001
    vertex 30.49999999999996 7.500000000000009 5.0000000000000115
    vertex 30.499999999999932 14.699999999999973 3.499999999999995
  endloop
endfacet
facet normal 1.0 5.4037030278024095e-16 1.7883675630056073e-15
  outer loop
    vertex 30.499999999999932 14.700000000000063 19.00000000000001
    vertex 30.499999999999932 14.699999999999973 3.499999999999995
    vertex 30.49999999999995 14.69999999999999 5.000000000000011
  endloop
endfacet
facet normal 1.0 7.890376734192255e-15 9.086471847889949e-16
  outer loop
    vertex 30.499999999999844 36.00000000000005 3.5000000000000004
    vertex 30.499999999999833 25.50000000000002 4.999999999999999
    vertex 30.500000000000057 18.30000000000021 3.5000000000000036
  endloop
endfacet
facet normal 1.0 7.890376734192255e-15 9.086471847889949e-16
  outer loop
    vertex 30.499999999999833 25.50000000000002 4.999999999999999
    vertex 30.499999999999844 36.00000000000005 3.5000000000000004
    vertex 30.499999999999943 34.49999999999995 5.000000000000001
  endloop
endfacet
facet normal 1.0 7.890376734192255e-15 9.086471847889949e-16
  outer loop
    vertex 30.499999999999943 34.49999999999995 5.000000000000001
    vertex 30.499999999999844 36.00000000000005 3.5000000000000004
    vertex 30.499999999999943 34.49999999999995 15.0
  endloop
endfacet
facet normal 1.0 7.890376734192255e-15 9.086471847889949e-16
  outer loop
    vertex 30.499999999999943 34.49999999999995 15.0
    vertex 30.499999999999844 36.00000000000005 3.5000000000000004
    vertex 30.499999999999844 36.00000000000005 15.0
  endloop
endfacet
facet normal 1.0 7.890376734192255e-15 9.086471847889949e-16
  outer loop
    vertex 30.50000000000001 18.300000000000196 5.000000000000011
    vertex 30.499999999999833 25.50000000000002 19.00000000000001
    vertex 30.500000000000057 18.300000000000143 19.0
  endloop
endfacet
facet normal 1.0 7.890376734192255e-15 9.086471847889949e-16
  outer loop
    vertex 30.499999999999833 25.50000000000002 19.00000000000001
    vertex 30.50000000000001 18.300000000000196 5.000000000000011
    vertex 30.500000000000057 18.30000000000021 3.5000000000000036
  endloop
endfacet
facet normal 1.0 7.890376734192255e-15 9.086471847889949e-16
  outer loop
    vertex 30.499999999999833 25.50000000000002 19.00000000000001
    vertex 30.500000000000057 18.30000000000021 3.5000000000000036
    vertex 30.499999999999833 25.50000000000002 4.999999999999999
  endloop
endfacet
facet normal -0.24923187101803054 0.968443841670157 2.422405455722776e-15
  outer loop
    vertex 30.500000000000057 18.30000000000021 3.5000000000000036
    vertex 37.300000000000054 20.050000000000008 19.0
    vertex 37.300000000000054 20.050000000000008 3.499999999999999
  endloop
endfacet
facet normal -0.24923187101803054 0.968443841670157 2.422405455722776e-15
  outer loop
    vertex 37.300000000000054 20.050000000000008 19.0
    vertex 30.500000000000057 18.30000000000021 3.5000000000000036
    vertex 30.50000000000001 18.300000000000196 5.000000000000011
  endloop
endfacet
facet normal -0.24923187101803054 0.968443841670157 2.422405455722776e-15
  outer loop
    vertex 37.300000000000054 20.050000000000008 19.0
    vertex 30.50000000000001 18.300000000000196 5.000000000000011
    vertex 30.500000000000057 18.300000000000143 19.0
  endloop
endfacet
facet normal -0.2492318710180564 -0.9684438416701503 2.910435858890409e-15
  outer loop
    vertex 37.299999999999876 12.95000000000001 3.5000000000000107
    vertex 30.49999999999995 14.69999999999999 5.000000000000011
    vertex 30.499999999999932 14.699999999999973 3.499999999999995
  endloop
endfacet
facet normal -0.2492318710180564 -0.9684438416701503 2.910435858890409e-15
  outer loop
    vertex 30.49999999999995 14.69999999999999 5.000000000000011
    vertex 37.299999999999876 12.95000000000001 3.5000000000000107
    vertex 37.299999999999876 12.95000000000001 19.00000000000001
  endloop
endfacet
facet normal -0.2492318710180564 -0.9684438416701503 2.910435858890409e-15
  outer loop
    vertex 30.49999999999995 14.69999999999999 5.000000000000011
    vertex 37.299999999999876 12.95000000000001 19.00000000000001
    vertex 30.499999999999932 14.700000000000063 19.00000000000001
  endloop
endfacet
facet normal 1.0 -2.541941618071346e-14 9.70311047758404e-16
  outer loop
    vertex 37.300000000000054 20.050000000000008 3.499999999999999
    vertex 37.299999999999876 12.95000000000001 19.00000000000001
    vertex 37.299999999999876 12.95000000000001 3.5000000000000107
  endloop
endfacet
facet normal 1.0 -2.541941618071346e-14 9.70311047758404e-16
  outer loop
    vertex 37.299999999999876 12.95000000000001 19.00000000000001
    vertex 37.300000000000054 20.050000000000008 3.499999999999999
    vertex 37.29999999999992 16.499999999999986 19.0
  endloop
endfacet
facet normal 1.0 -2.541941618071346e-14 9.70311047758404e-16
  outer loop
    vertex 37.29999999999992 16.499999999999986 19.0
    vertex 37.300000000000054 20.050000000000008 3.499999999999999
    vertex 37.300000000000054 20.050000000000008 19.0
  endloop
endfacet
facet normal -1.0 -1.5405372450956092e-15 -7.239316940272221e-15
  outer loop
    vertex -5.499999999999998 5.111259748780126e-15 15.0
    vertex -5.500000000000001 36.00000000000005 3.5000000000000004
    vertex -5.499999999999998 2.7665906007785826e-15 3.500000000000011
  endloop
endfacet
facet normal -1.0 -1.5405372450956092e-15 -7.239316940272221e-15
  outer loop
    vertex -5.500000000000001 36.00000000000005 3.5000000000000004
    vertex -5.499999999999998 5.111259748780126e-15 15.0
    vertex -5.500000000000159 36.00000000000005 15.0
  endloop
endfacet
facet normal -0.0 -0.0 1.0
  outer loop
    vertex -3.9999999999999925 5.640088549453453e-15 15.0
    vertex -4.000000000000154 34.49999999999972 15.0
    vertex -5.499999999999998 5.111259748780126e-15 15.0
  endloop
endfacet
facet normal -0.0 -0.0 1.0
  outer loop
    vertex -5.500000000000159 36.00000000000005 15.0
    vertex -4.000000000000154 34.49999999999972 15.0
    vertex 30.499999999999844 36.00000000000005 15.0
  endloop
endfacet
facet normal -0.0 -0.0 1.0
  outer loop
    vertex -4.000000000000154 34.49999999999972 15.0
    vertex -5.500000000000159 36.00000000000005 15.0
    vertex -5.499999999999998 5.111259748780126e-15 15.0
  endloop
endfacet
facet normal -0.0 -0.0 1.0
  outer loop
    vertex 30.499999999999844 36.00000000000005 15.0
    vertex -4.000000000000154 34.49999999999972 15.0
    vertex 30.499999999999943 34.49999999999995 15.0
  endloop
endfacet
facet normal 6.702529030983404e-15 -1.0 5.63993296509634e-16
  outer loop
    vertex 30.499999999999943 34.49999999999995 5.000000000000001
    vertex -4.000000000000154 34.49999999999972 15.0
    vertex -3.9999999999999942 34.49999999999971 4.9999999999997895
  endloop
endfacet
facet normal 6.702529030983404e-15 -1.0 5.63993296509634e-16
  outer loop
    vertex -4.000000000000154 34.49999999999972 15.0
    vertex 30.499999999999943 34.49999999999995 5.000000000000001
    vertex 30.499999999999943 34.49999999999995 15.0
  endloop
endfacet
facet normal 1.0 2.3499720687899594e-15 7.966405313197807e-15
  outer loop
    vertex -3.9999999999999942 34.49999999999971 4.9999999999997895
    vertex -3.9999999999999925 5.640088549453453e-15 15.0
    vertex -3.9999999999999925 5.640088549453453e-15 5.000000000000001
  endloop
endfacet
facet normal 1.0 2.3499720687899594e-15 7.966405313197807e-15
  outer loop
    vertex -3.9999999999999925 5.640088549453453e-15 15.0
    vertex -3.9999999999999942 34.49999999999971 4.9999999999997895
    vertex -4.000000000000154 34.49999999999972 15.0
  endloop
endfacet
facet normal -8.13580728659139e-17 -2.9403933227108737e-16 -1.0
  outer loop
    vertex 30.499999999999844 36.00000000000005 3.5000000000000004
    vertex -5.499999999999998 2.7665906007785826e-15 3.500000000000011
    vertex -5.500000000000001 36.00000000000005 3.5000000000000004
  endloop
endfacet
facet normal -8.13580728659139e-17 -2.9403933227108737e-16 -1.0
  outer loop
    vertex -5.499999999999998 2.7665906007785826e-15 3.500000000000011
    vertex 30.499999999999844 36.00000000000005 3.5000000000000004
    vertex 10.250000000000014 6.999999999999962 3.500000000000002
  endloop
endfacet
facet normal -8.13580728659139e-17 -2.9403933227108737e-16 -1.0
  outer loop
    vertex 10.250000000000014 6.999999999999962 3.500000000000002
    vertex 30.499999999999844 36.00000000000005 3.5000000000000004
    vertex 17.750000000000014 6.999999999999993 3.4999999999999964
  endloop
endfacet
facet normal -8.13580728659139e-17 -2.9403933227108737e-16 -1.0
  outer loop
    vertex 17.750000000000014 6.999999999999993 3.4999999999999964
    vertex 30.499999999999844 36.00000000000005 3.5000000000000004
    vertex 24.74999999999995 3.75 3.5000000000000058
  endloop
endfacet
facet normal -8.13580728659139e-17 -2.9403933227108737e-16 -1.0
  outer loop
    vertex 24.74999999999995 3.75 3.5000000000000058
    vertex 30.499999999999844 36.00000000000005 3.5000000000000004
    vertex 25.749999999999947 5.4820508075688785 3.5000000000000058
  endloop
endfacet
facet normal -8.13580728659139e-17 -2.9403933227108737e-16 -1.0
  outer loop
    vertex 25.749999999999947 5.4820508075688785 3.5000000000000058
    vertex 30.499999999999844 36.00000000000005 3.5000000000000004
    vertex 27.74999999999995 5.48205080756888 3.500000000000005
  endloop
endfacet
facet normal -8.13580728659139e-17 -2.9403933227108737e-16 -1.0
  outer loop
    vertex 27.74999999999995 5.48205080756888 3.500000000000005
    vertex 30.499999999999844 36.00000000000005 3.5000000000000004
    vertex 28.749999999999954 3.75 3.5000000000000058
  endloop
endfacet
facet normal -8.13580728659139e-17 -2.9403933227108737e-16 -1.0
  outer loop
    vertex 30.500000000000057 18.30000000000021 3.5000000000000036
    vertex 30.499999999999932 14.699999999999973 3.499999999999995
    vertex 30.499999999999844 36.00000000000005 3.5000000000000004
  endloop
endfacet
facet normal -8.13580728659139e-17 -2.9403933227108737e-16 -1.0
  outer loop
    vertex 30.499999999999932 14.699999999999973 3.499999999999995
    vertex 30.500000000000057 18.30000000000021 3.5000000000000036
    vertex 37.299999999999876 12.95000000000001 3.5000000000000107
  endloop
endfacet
facet normal -8.13580728659139e-17 -2.9403933227108737e-16 -1.0
  outer loop
    vertex 37.299999999999876 12.95000000000001 3.5000000000000107
    vertex 30.500000000000057 18.30000000000021 3.5000000000000036
    vertex 37.300000000000054 20.050000000000008 3.499999999999999
  endloop
endfacet
facet normal -8.13580728659139e-17 -2.9403933227108737e-16 -1.0
  outer loop
    vertex 16.00000000000003 9.311369992320866e-16 3.500000000000006
    vertex 25.749999999999954 2.017949192431121 3.500000000000006
    vertex 30.499999999999954 9.311369992320866e-16 3.5000000000000084
  endloop
endfacet
facet normal -8.13580728659139e-17 -2.9403933227108737e-16 -1.0
  outer loop
    vertex 25.749999999999954 2.017949192431121 3.500000000000006
    vertex 16.00000000000003 9.311369992320866e-16 3.500000000000006
    vertex 17.750000000000014 6.999999999999993 3.4999999999999964
  endloop
endfacet
facet normal -8.13580728659139e-17 -2.9403933227108737e-16 -1.0
  outer loop
    vertex 25.749999999999954 2.017949192431121 3.500000000000006
    vertex 17.750000000000014 6.999999999999993 3.4999999999999964
    vertex 24.74999999999995 3.75 3.5000000000000058
  endloop
endfacet
facet normal -8.13580728659139e-17 -2.9403933227108737e-16 -1.0
  outer loop
    vertex 30.499999999999954 9.311369992320866e-16 3.5000000000000084
    vertex 25.749999999999954 2.017949192431121 3.500000000000006
    vertex 27.749999999999954 2.017949192431121 3.500000000000006
  endloop
endfacet
facet normal -8.13580728659139e-17 -2.9403933227108737e-16 -1.0
  outer loop
    vertex 30.499999999999954 9.311369992320866e-16 3.5000000000000084
    vertex 27.749999999999954 2.017949192431121 3.500000000000006
    vertex 28.749999999999954 3.75 3.5000000000000058
  endloop
endfacet
facet normal -8.13580728659139e-17 -2.9403933227108737e-16 -1.0
  outer loop
    vertex 30.499999999999954 9.311369992320866e-16 3.5000000000000084
    vertex 28.749999999999954 3.75 3.5000000000000058
    vertex 30.499999999999844 36.00000000000005 3.5000000000000004
  endloop
endfacet
facet normal -8.13580728659139e-17 -2.9403933227108737e-16 -1.0
  outer loop
    vertex 30.499999999999954 9.311369992320866e-16 3.5000000000000084
    vertex 30.499999999999844 36.00000000000005 3.5000000000000004
    vertex 30.499999999999932 14.699999999999973 3.499999999999995
  endloop
endfacet
facet normal -8.13580728659139e-17 -2.9403933227108737e-16 -1.0
  outer loop
    vertex 12.000000000000023 9.311369992320866e-16 3.500000000000023
    vertex -5.499999999999998 2.7665906007785826e-15 3.500000000000011
    vertex 10.250000000000014 6.999999999999962 3.500000000000002
  endloop
endfacet
facet normal -5.222160152866496e-17 1.0 1.022162690902217e-16
  outer loop
    vertex -5.500000000000159 36.00000000000005 15.0
    vertex 30.499999999999844 36.00000000000005 3.5000000000000004
    vertex -5.500000000000001 36.00000000000005 3.5000000000000004
  endloop
endfacet
facet normal -5.222160152866496e-17 1.0 1.022162690902217e-16
  outer loop
    vertex 30.499999999999844 36.00000000000005 3.5000000000000004
    vertex -5.500000000000159 36.00000000000005 15.0
    vertex 30.499999999999844 36.00000000000005 15.0
  endloop
endfacet
facet normal -4.80641868901791e-15 4.864547346220631e-15 1.0
  outer loop
    vertex 5.000000000000001 4.862011176806702e-19 4.999999999999999
    vertex 4.999999999999926 15.499999999999813 4.999999999999947
    vertex -3.9999999999999925 5.640088549453453e-15 5.000000000000001
  endloop
endfacet
facet normal -4.80641868901791e-15 4.864547346220631e-15 1.0
  outer loop
    vertex -3.9999999999999942 34.49999999999971 4.9999999999997895
    vertex 14.999999999999936 25.49999999999984 4.999999999999936
    vertex 30.499999999999943 34.49999999999995 5.000000000000001
  endloop
endfacet
facet normal -4.80641868901791e-15 4.864547346220631e-15 1.0
  outer loop
    vertex 14.999999999999936 25.49999999999984 4.999999999999936
    vertex -3.9999999999999942 34.49999999999971 4.9999999999997895
    vertex 4.999999999999926 15.499999999999813 4.999999999999947
  endloop
endfacet
facet normal -4.80641868901791e-15 4.864547346220631e-15 1.0
  outer loop
    vertex 4.999999999999926 15.499999999999813 4.999999999999947
    vertex -3.9999999999999942 34.49999999999971 4.9999999999997895
    vertex -3.9999999999999925 5.640088549453453e-15 5.000000000000001
  endloop
endfacet
facet normal -4.80641868901791e-15 4.864547346220631e-15 1.0
  outer loop
    vertex 14.999999999999936 25.49999999999984 4.999999999999936
    vertex 4.999999999999926 15.499999999999813 4.999999999999947
    vertex 14.999999999999936 15.499999999999813 4.999999999999947
  endloop
endfacet
facet normal -4.80641868901791e-15 4.864547346220631e-15 1.0
  outer loop
    vertex 30.499999999999943 34.49999999999995 5.000000000000001
    vertex 14.999999999999936 25.49999999999984 4.999999999999936
    vertex 30.499999999999833 25.50000000000002 4.999999999999999
  endloop
endfacet
facet normal -1.0 -5.639932965095861e-15 -1.1582005196178776e-15
  outer loop
    vertex 4.999999999999897 15.499999999999853 18.999999999999932
    vertex 5.000000000000001 4.862011176806702e-19 4.999999999999999
    vertex 4.999999999999998 -3.4349597850491274e-16 19.00000000000001
  endloop
endfacet
facet normal -1.0 -5.639932965095861e-15 -1.1582005196178776e-15
  outer loop
    vertex 5.000000000000001 4.862011176806702e-19 4.999999999999999
    vertex 4.999999999999897 15.499999999999853 18.999999999999932
    vertex 4.999999999999926 15.499999999999813 4.999999999999947
  endloop
endfacet
facet normal -9.096666072735185e-15 1.0 -2.8199664825479085e-15
  outer loop
    vertex 14.999999999999897 25.49999999999992 18.999999999999922
    vertex 30.499999999999833 25.50000000000002 4.999999999999999
    vertex 14.999999999999936 25.49999999999984 4.999999999999936
  endloop
endfacet
facet normal -9.096666072735185e-15 1.0 -2.8199664825479085e-15
  outer loop
    vertex 30.499999999999833 25.50000000000002 4.999999999999999
    vertex 14.999999999999897 25.49999999999992 18.999999999999922
    vertex 30.499999999999833 25.50000000000002 19.00000000000001
  endloop
endfacet
facet normal 1.0 -0.0 -1.208557063949101e-15
  outer loop
    vertex 22.999999999999954 2.017099147957137e-32 5.0000000000000115
    vertex 22.999999999999968 7.499999999999999 18.99999999999999
    vertex 22.999999999999968 -3.4349597850491274e-16 18.99999999999999
  endloop
endfacet
facet normal 1.0 -0.0 -1.208557063949101e-15
  outer loop
    vertex 22.999999999999968 7.499999999999999 18.99999999999999
    vertex 22.999999999999954 2.017099147957137e-32 5.0000000000000115
    vertex 22.999999999999954 7.499999999999999 5.0000000000000115
  endloop
endfacet
facet normal -9.21189050965645e-15 -1.0 -5.6399329650958154e-15
  outer loop
    vertex 30.49999999999991 7.499999999999851 18.99999999999999
    vertex 22.999999999999954 7.499999999999999 5.0000000000000115
    vertex 30.49999999999996 7.500000000000009 5.0000000000000115
  endloop
endfacet
facet normal -9.21189050965645e-15 -1.0 -5.6399329650958154e-15
  outer loop
    vertex 22.999999999999954 7.499999999999999 5.0000000000000115
    vertex 30.49999999999991 7.499999999999851 18.99999999999999
    vertex 22.999999999999968 7.499999999999999 18.99999999999999
  endloop
endfacet
facet normal -0.8660254037844394 0.49999999999999906 -1.0263045598931914e-17
  outer loop
    vertex 28.749999999999954 3.75 5.0000000000000115
    vertex 27.749999999999954 2.017949192431121 3.500000000000006
    vertex 27.749999999999954 2.017949192431121 5.0000000000000115
  endloop
endfacet
facet normal -0.8660254037844394 0.49999999999999906 -1.0263045598931914e-17
  outer loop
    vertex 27.749999999999954 2.017949192431121 3.500000000000006
    vertex 28.749999999999954 3.75 5.0000000000000115
    vertex 28.749999999999954 3.75 3.5000000000000058
  endloop
endfacet
facet normal -0.0 1.0 -0.0
  outer loop
    vertex 25.749999999999954 2.017949192431121 5.0000000000000115
    vertex 27.749999999999954 2.017949192431121 3.500000000000006
    vertex 25.749999999999954 2.017949192431121 3.500000000000006
  endloop
endfacet
facet normal -0.0 1.0 -0.0
  outer loop
    vertex 27.749999999999954 2.017949192431121 3.500000000000006
    vertex 25.749999999999954 2.017949192431121 5.0000000000000115
    vertex 27.749999999999954 2.017949192431121 5.0000000000000115
  endloop
endfacet
facet normal 0.866025403784438 0.5000000000000011 -1.0263045598930513e-17
  outer loop
    vertex 24.74999999999995 3.75 3.5000000000000058
    vertex 25.749999999999954 2.017949192431121 5.0000000000000115
    vertex 25.749999999999954 2.017949192431121 3.500000000000006
  endloop
endfacet
facet normal 0.866025403784438 0.5000000000000011 -1.0263045598930513e-17
  outer loop
    vertex 25.749999999999954 2.017949192431121 5.0000000000000115
    vertex 24.74999999999995 3.75 3.5000000000000058
    vertex 24.74999999999995 3.75 5.0000000000000115
  endloop
endfacet
facet normal 0.8660254037844392 -0.4999999999999991 -0.0
  outer loop
    vertex 25.749999999999947 5.4820508075688785 3.5000000000000058
    vertex 24.74999999999995 3.75 5.0000000000000115
    vertex 24.74999999999995 3.75 3.5000000000000058
  endloop
endfacet
facet normal 0.8660254037844392 -0.4999999999999991 -0.0
  outer loop
    vertex 24.74999999999995 3.75 5.0000000000000115
    vertex 25.749999999999947 5.4820508075688785 3.5000000000000058
    vertex 25.749999999999947 5.4820508075688785 5.0000000000000115
  endloop
endfacet
facet normal -0.8660254037844382 -0.5000000000000009 1.0263045598928988e-17
  outer loop
    vertex 27.74999999999995 5.48205080756888 5.0000000000000115
    vertex 28.749999999999954 3.75 3.5000000000000058
    vertex 28.749999999999954 3.75 5.0000000000000115
  endloop
endfacet
facet normal -0.8660254037844382 -0.5000000000000009 1.0263045598928988e-17
  outer loop
    vertex 28.749999999999954 3.75 3.5000000000000058
    vertex 27.74999999999995 5.48205080756888 5.0000000000000115
    vertex 27.74999999999995 5.48205080756888 3.500000000000005
  endloop
endfacet
facet normal 7.049916206369737e-16 -1.0 -1.7257402262810593e-33
  outer loop
    vertex 27.74999999999995 5.48205080756888 5.0000000000000115
    vertex 25.749999999999947 5.4820508075688785 3.5000000000000058
    vertex 27.74999999999995 5.48205080756888 3.500000000000005
  endloop
endfacet
facet normal 7.049916206369737e-16 -1.0 -1.7257402262810593e-33
  outer loop
    vertex 25.749999999999947 5.4820508075688785 3.5000000000000058
    vertex 27.74999999999995 5.48205080756888 5.0000000000000115
    vertex 25.749999999999947 5.4820508075688785 5.0000000000000115
  endloop
endfacet
facet normal -1.928808977901663e-15 2.1895984405261397e-15 1.0
  outer loop
    vertex 12.00000000000002 -3.4349597850491274e-16 18.99999999999999
    vertex 10.24999999999998 7.0 19.0
    vertex 4.999999999999998 -3.4349597850491274e-16 19.00000000000001
  endloop
endfacet
facet normal -1.928808977901663e-15 2.1895984405261397e-15 1.0
  outer loop
    vertex 22.999999999999968 -3.4349597850491274e-16 18.99999999999999
    vertex 17.74999999999999 6.999999999999998 18.999999999999964
    vertex 16.00000000000001 -3.4349597850491274e-16 19.00000000000002
  endloop
endfacet
facet normal -1.928808977901663e-15 2.1895984405261397e-15 1.0
  outer loop
    vertex 4.999999999999998 -3.4349597850491274e-16 19.00000000000001
    vertex 14.999999999999897 15.499999999999853 18.999999999999932
    vertex 4.999999999999897 15.499999999999853 18.999999999999932
  endloop
endfacet
facet normal -1.928808977901663e-15 2.1895984405261397e-15 1.0
  outer loop
    vertex 14.999999999999897 15.499999999999853 18.999999999999932
    vertex 4.999999999999998 -3.4349597850491274e-16 19.00000000000001
    vertex 10.24999999999998 7.0 19.0
  endloop
endfacet
facet normal -1.928808977901663e-15 2.1895984405261397e-15 1.0
  outer loop
    vertex 14.999999999999897 15.499999999999853 18.999999999999932
    vertex 10.24999999999998 7.0 19.0
    vertex 17.74999999999999 6.999999999999998 18.999999999999964
  endloop
endfacet
facet normal -1.928808977901663e-15 2.1895984405261397e-15 1.0
  outer loop
    vertex 14.999999999999897 15.499999999999853 18.999999999999932
    vertex 17.74999999999999 6.999999999999998 18.999999999999964
    vertex 14.999999999999897 25.49999999999992 18.999999999999922
  endloop
endfacet
facet normal -1.928808977901663e-15 2.1895984405261397e-15 1.0
  outer loop
    vertex 14.999999999999897 25.49999999999992 18.999999999999922
    vertex 17.74999999999999 6.999999999999998 18.999999999999964
    vertex 30.499999999999833 25.50000000000002 19.00000000000001
  endloop
endfacet
facet normal -1.928808977901663e-15 2.1895984405261397e-15 1.0
  outer loop
    vertex 30.499999999999833 25.50000000000002 19.00000000000001
    vertex 17.74999999999999 6.999999999999998 18.999999999999964
    vertex 22.999999999999968 7.499999999999999 18.99999999999999
  endloop
endfacet
facet normal -1.928808977901663e-15 2.1895984405261397e-15 1.0
  outer loop
    vertex 22.999999999999968 7.499999999999999 18.99999999999999
    vertex 17.74999999999999 6.999999999999998 18.999999999999964
    vertex 22.999999999999968 -3.4349597850491274e-16 18.99999999999999
  endloop
endfacet
facet normal -1.928808977901663e-15 2.1895984405261397e-15 1.0
  outer loop
    vertex 30.499999999999833 25.50000000000002 19.00000000000001
    vertex 22.999999999999968 7.499999999999999 18.99999999999999
    vertex 30.49999999999991 7.499999999999851 18.99999999999999
  endloop
endfacet
facet normal -1.928808977901663e-15 2.1895984405261397e-15 1.0
  outer loop
    vertex 30.499999999999833 25.50000000000002 19.00000000000001
    vertex 30.49999999999991 7.499999999999851 18.99999999999999
    vertex 30.499999999999932 14.700000000000063 19.00000000000001
  endloop
endfacet
facet normal -1.928808977901663e-15 2.1895984405261397e-15 1.0
  outer loop
    vertex 30.499999999999833 25.50000000000002 19.00000000000001
    vertex 30.499999999999932 14.700000000000063 19.00000000000001
    vertex 30.500000000000057 18.300000000000143 19.0
  endloop
endfacet
facet normal -1.928808977901663e-15 2.1895984405261397e-15 1.0
  outer loop
    vertex 30.500000000000057 18.300000000000143 19.0
    vertex 30.499999999999932 14.700000000000063 19.00000000000001
    vertex 37.299999999999876 12.95000000000001 19.00000000000001
  endloop
endfacet
facet normal -1.928808977901663e-15 2.1895984405261397e-15 1.0
  outer loop
    vertex 30.500000000000057 18.300000000000143 19.0
    vertex 37.299999999999876 12.95000000000001 19.00000000000001
    vertex 37.29999999999992 16.499999999999986 19.0
  endloop
endfacet
facet normal -1.928808977901663e-15 2.1895984405261397e-15 1.0
  outer loop
    vertex 30.500000000000057 18.300000000000143 19.0
    vertex 37.29999999999992 16.499999999999986 19.0
    vertex 37.300000000000054 20.050000000000008 19.0
  endloop
endfacet
facet normal -8.250418873795927e-32 1.0 -2.8199664825479002e-15
  outer loop
    vertex 4.999999999999897 15.499999999999853 18.999999999999932
    vertex 14.999999999999936 15.499999999999813 4.999999999999947
    vertex 4.999999999999926 15.499999999999813 4.999999999999947
  endloop
endfacet
facet normal -8.250418873795927e-32 1.0 -2.8199664825479002e-15
  outer loop
    vertex 14.999999999999936 15.499999999999813 4.999999999999947
    vertex 4.999999999999897 15.499999999999853 18.999999999999932
    vertex 14.999999999999897 15.499999999999853 18.999999999999932
  endloop
endfacet
facet normal -1.0 -3.307125734110136e-30 -2.8199664825479002e-15
  outer loop
    vertex 14.999999999999897 15.499999999999853 18.999999999999932
    vertex 14.999999999999936 25.49999999999984 4.999999999999936
    vertex 14.999999999999936 15.499999999999813 4.999999999999947
  endloop
endfacet
facet normal -1.0 -3.307125734110136e-30 -2.8199664825479002e-15
  outer loop
    vertex 14.999999999999936 25.49999999999984 4.999999999999936
    vertex 14.999999999999897 15.499999999999853 18.999999999999932
    vertex 14.999999999999897 25.49999999999992 18.999999999999922
  endloop
endfacet
endsolid corner
