solid V3_Corner_control
facet normal -1.0 -3.75995531006387e-15 -1.4099832412739495e-15
  outer loop
    vertex 94.05408926761721 116.28589117258163 6.500000000000016
    vertex 94.05408926761721 114.78589117258164 1.5000000000000178
    vertex 94.05408926761721 114.78589117258164 6.500000000000016
  endloop
endfacet
facet normal -1.0 -3.75995531006387e-15 -1.4099832412739495e-15
  outer loop
    vertex 94.05408926761721 114.78589117258164 1.5000000000000178
    vertex 94.05408926761721 116.28589117258163 6.500000000000016
    vertex 94.05408926761721 116.28589117258163 1.5000000000000184
  endloop
endfacet
facet normal 1.0 7.519910620127741e-15 2.899243580149538e-32
  outer loop
    vertex 84.05408926761721 116.28589117258163 1.5000000000000184
    vertex 84.05408926761723 114.78589117258164 6.500000000000016
    vertex 84.05408926761723 114.78589117258164 1.5000000000000182
  endloop
endfacet
facet normal 1.0 7.519910620127741e-15 2.899243580149538e-32
  outer loop
    vertex 84.05408926761723 114.78589117258164 6.500000000000016
    vertex 84.05408926761721 116.28589117258163 1.5000000000000184
    vertex 84.05408926761721 116.28589117258163 6.500000000000015
  endloop
endfacet
facet normal -2.1736543972057883e-17 -4.636566256780342e-16 1.0
  outer loop
    vertex 140.07536447289493 134.88589117258164 6.5000000000000195
    vertex 107.12710145432882 136.38589117258164 6.5000000000000195
    vertex 107.12710145432882 134.88589117258164 6.5000000000000195
  endloop
endfacet
facet normal -2.1736543972057883e-17 -4.636566256780342e-16 1.0
  outer loop
    vertex 107.12710145432882 136.38589117258164 6.5000000000000195
    vertex 140.07536447289493 134.88589117258164 6.5000000000000195
    vertex 139.94483752427493 136.38589117258164 6.50000000000002
  endloop
endfacet
facet normal -0.0 1.0 -0.0
  outer loop
    vertex 76.37536447289494 122.48589117258165 1.500000000000019
    vertex 78.25176652832332 122.48589117258165 6.500000000000016
    vertex 78.25176652832332 122.48589117258165 1.5000000000000184
  endloop
endfacet
facet normal -0.0 1.0 -0.0
  outer loop
    vertex 78.25176652832332 122.48589117258165 6.500000000000016
    vertex 76.37536447289494 122.48589117258165 1.500000000000019
    vertex 76.37536447289494 122.48589117258165 6.500000000000016
  endloop
endfacet
facet normal 6.548899677959008e-17 2.956646472176433e-17 -1.0
  outer loop
    vertex 75.32710145432888 128.39085511864792 1.5509815654013436e-14
    vertex 73.82710145432893 93.19613014345003 1.4099832412739488e-14
    vertex 73.82710145432893 128.39085511864792 1.4099832412739488e-14
  endloop
endfacet
facet normal 6.548899677959008e-17 2.956646472176433e-17 -1.0
  outer loop
    vertex 73.82710145432893 93.19613014345003 1.4099832412739488e-14
    vertex 75.32710145432888 128.39085511864792 1.5509815654013436e-14
    vertex 77.00204451130791 88.1808534314626 1.4099832412739488e-14
  endloop
endfacet
facet normal 6.548899677959008e-17 2.956646472176433e-17 -1.0
  outer loop
    vertex 77.00204451130791 88.1808534314626 1.4099832412739488e-14
    vertex 75.32710145432888 128.39085511864792 1.5509815654013436e-14
    vertex 75.32710145432888 138.1848346464415 1.5509815654013436e-14
  endloop
endfacet
facet normal 6.548899677959008e-17 2.956646472176433e-17 -1.0
  outer loop
    vertex 77.00204451130791 88.1808534314626 1.4099832412739488e-14
    vertex 75.32710145432888 138.1848346464415 1.5509815654013436e-14
    vertex 78.82710145432893 112.47654715947742 1.4099832412739488e-14
  endloop
endfacet
facet normal 6.548899677959008e-17 2.956646472176433e-17 -1.0
  outer loop
    vertex 78.82710145432893 112.47654715947742 1.4099832412739488e-14
    vertex 75.32710145432888 138.1848346464415 1.5509815654013436e-14
    vertex 108.82710145432883 138.1848346464415 8.459899447643692e-15
  endloop
endfacet
facet normal 6.548899677959008e-17 2.956646472176433e-17 -1.0
  outer loop
    vertex 78.82710145432893 112.47654715947742 1.4099832412739488e-14
    vertex 108.82710145432883 138.1848346464415 8.459899447643692e-15
    vertex 82.82710145432893 112.47654715947742 1.4099832412739488e-14
  endloop
endfacet
facet normal 6.548899677959008e-17 2.956646472176433e-17 -1.0
  outer loop
    vertex 82.82710145432893 112.47654715947742 1.4099832412739488e-14
    vertex 108.82710145432883 138.1848346464415 8.459899447643692e-15
    vertex 82.82710145432893 109.47654715947743 1.4099832412739488e-14
  endloop
endfacet
facet normal 6.548899677959008e-17 2.956646472176433e-17 -1.0
  outer loop
    vertex 82.82710145432893 109.47654715947743 1.4099832412739488e-14
    vertex 108.82710145432883 138.1848346464415 8.459899447643692e-15
    vertex 85.22351148402194 80.55099181226623 1.4099832412739488e-14
  endloop
endfacet
facet normal 6.548899677959008e-17 2.956646472176433e-17 -1.0
  outer loop
    vertex 85.22351148402194 80.55099181226623 1.4099832412739488e-14
    vertex 108.82710145432883 138.1848346464415 8.459899447643692e-15
    vertex 97.12710145432892 100.72220766053722 1.4099832412739488e-14
  endloop
endfacet
facet normal 6.548899677959008e-17 2.956646472176433e-17 -1.0
  outer loop
    vertex 85.22351148402194 80.55099181226623 1.4099832412739488e-14
    vertex 97.12710145432892 100.72220766053722 1.4099832412739488e-14
    vertex 94.55367819127181 76.05344194186873 1.4099832412739488e-14
  endloop
endfacet
facet normal 6.548899677959008e-17 2.956646472176433e-17 -1.0
  outer loop
    vertex 97.12710145432892 100.72220766053722 1.4099832412739488e-14
    vertex 108.82710145432883 138.1848346464415 8.459899447643692e-15
    vertex 111.12710145432894 100.72220766053722 1.4099832412739488e-14
  endloop
endfacet
facet normal 6.548899677959008e-17 2.956646472176433e-17 -1.0
  outer loop
    vertex 111.12710145432894 100.72220766053722 1.4099832412739488e-14
    vertex 108.82710145432883 138.1848346464415 8.459899447643692e-15
    vertex 110.84668059638993 176.70458228276468 1.8329782136561334e-14
  endloop
endfacet
facet normal 6.548899677959008e-17 2.956646472176433e-17 -1.0
  outer loop
    vertex 111.12710145432894 100.72220766053722 1.4099832412739488e-14
    vertex 110.84668059638993 176.70458228276468 1.8329782136561334e-14
    vertex 120.17729647208272 172.20681589346302 1.8329782136561334e-14
  endloop
endfacet
facet normal 6.548899677959008e-17 2.956646472176433e-17 -1.0
  outer loop
    vertex 111.12710145432894 100.72220766053722 1.4099832412739488e-14
    vertex 120.17729647208272 172.20681589346302 1.8329782136561334e-14
    vertex 111.12710145432894 99.72220766053722 1.4099832412739488e-14
  endloop
endfacet
facet normal 6.548899677959008e-17 2.956646472176433e-17 -1.0
  outer loop
    vertex 111.12710145432894 99.72220766053722 1.4099832412739488e-14
    vertex 120.17729647208272 172.20681589346302 1.8329782136561334e-14
    vertex 111.12710145432894 93.72220766053722 1.4099832412739488e-14
  endloop
endfacet
facet normal 6.548899677959008e-17 2.956646472176433e-17 -1.0
  outer loop
    vertex 111.12710145432894 93.72220766053722 1.4099832412739488e-14
    vertex 120.17729647208272 172.20681589346302 1.8329782136561334e-14
    vertex 114.09577457137503 77.20821122168425 1.4099832412739488e-14
  endloop
endfacet
facet normal 6.548899677959008e-17 2.956646472176433e-17 -1.0
  outer loop
    vertex 114.09577457137503 77.20821122168425 1.4099832412739488e-14
    vertex 120.17729647208272 172.20681589346302 1.8329782136561334e-14
    vertex 119.77998713729895 146.33483464644155 3.8069547514396615e-14
  endloop
endfacet
facet normal 6.548899677959008e-17 2.956646472176433e-17 -1.0
  outer loop
    vertex 119.77998713729895 146.33483464644155 3.8069547514396615e-14
    vertex 120.17729647208272 172.20681589346302 1.8329782136561334e-14
    vertex 123.67710145432892 148.58483464644155 3.947953075567056e-14
  endloop
endfacet
facet normal 6.548899677959008e-17 2.956646472176433e-17 -1.0
  outer loop
    vertex 123.67710145432892 148.58483464644155 3.947953075567056e-14
    vertex 120.17729647208272 172.20681589346302 1.8329782136561334e-14
    vertex 128.3987634447969 164.57695427426657 1.8329782136561334e-14
  endloop
endfacet
facet normal 6.548899677959008e-17 2.956646472176433e-17 -1.0
  outer loop
    vertex 123.67710145432892 148.58483464644155 3.947953075567056e-14
    vertex 128.3987634447969 164.57695427426657 1.8329782136561334e-14
    vertex 127.5742157713589 146.33483464644155 3.947953075567056e-14
  endloop
endfacet
facet normal 6.548899677959008e-17 2.956646472176433e-17 -1.0
  outer loop
    vertex 127.5742157713589 146.33483464644155 3.947953075567056e-14
    vertex 128.3987634447969 164.57695427426657 1.8329782136561334e-14
    vertex 127.5742157713589 141.83483464644155 3.8069547514396615e-14
  endloop
endfacet
facet normal 6.548899677959008e-17 2.956646472176433e-17 -1.0
  outer loop
    vertex 114.09577457137503 77.20821122168425 1.4099832412739488e-14
    vertex 119.77998713729895 141.83483464644155 3.665956427312267e-14
    vertex 123.12023368493782 82.8054314232186 1.4099832412739488e-14
  endloop
endfacet
facet normal 6.548899677959008e-17 2.956646472176433e-17 -1.0
  outer loop
    vertex 119.77998713729895 141.83483464644155 3.665956427312267e-14
    vertex 114.09577457137503 77.20821122168425 1.4099832412739488e-14
    vertex 119.77998713729895 146.33483464644155 3.8069547514396615e-14
  endloop
endfacet
facet normal 6.548899677959008e-17 2.956646472176433e-17 -1.0
  outer loop
    vertex 123.12023368493782 82.8054314232186 1.4099832412739488e-14
    vertex 119.77998713729895 141.83483464644155 3.665956427312267e-14
    vertex 123.67710145432892 139.58483464644155 3.665956427312267e-14
  endloop
endfacet
facet normal 6.548899677959008e-17 2.956646472176433e-17 -1.0
  outer loop
    vertex 123.12023368493782 82.8054314232186 1.4099832412739488e-14
    vertex 123.67710145432892 139.58483464644155 3.665956427312267e-14
    vertex 130.82602295827314 91.40192805620192 1.2689849171465539e-14
  endloop
endfacet
facet normal 6.548899677959008e-17 2.956646472176433e-17 -1.0
  outer loop
    vertex 130.82602295827314 91.40192805620192 1.2689849171465539e-14
    vertex 123.67710145432892 139.58483464644155 3.665956427312267e-14
    vertex 127.5742157713589 141.83483464644155 3.8069547514396615e-14
  endloop
endfacet
facet normal 6.548899677959008e-17 2.956646472176433e-17 -1.0
  outer loop
    vertex 130.82602295827314 91.40192805620192 1.2689849171465539e-14
    vertex 127.5742157713589 141.83483464644155 3.8069547514396615e-14
    vertex 128.3987634447969 164.57695427426657 1.8329782136561334e-14
  endloop
endfacet
facet normal 6.548899677959008e-17 2.956646472176433e-17 -1.0
  outer loop
    vertex 130.82602295827314 91.40192805620192 1.2689849171465539e-14
    vertex 128.3987634447969 164.57695427426657 1.8329782136561334e-14
    vertex 134.91181413099784 154.28865906887822 1.8329782136561334e-14
  endloop
endfacet
facet normal 6.548899677959008e-17 2.956646472176433e-17 -1.0
  outer loop
    vertex 130.82602295827314 91.40192805620192 1.2689849171465539e-14
    vertex 134.91181413099784 154.28865906887822 1.8329782136561334e-14
    vertex 136.64042453192462 102.44273984206349 1.2689849171465539e-14
  endloop
endfacet
facet normal 6.548899677959008e-17 2.956646472176433e-17 -1.0
  outer loop
    vertex 136.64042453192462 102.44273984206349 1.2689849171465539e-14
    vertex 134.91181413099784 154.28865906887822 1.8329782136561334e-14
    vertex 139.22305672047779 142.039265805656 1.8329782136561334e-14
  endloop
endfacet
facet normal 6.548899677959008e-17 2.956646472176433e-17 -1.0
  outer loop
    vertex 136.64042453192462 102.44273984206349 1.2689849171465539e-14
    vertex 139.22305672047779 142.039265805656 1.8329782136561334e-14
    vertex 139.84489148449114 114.15747679405136 1.2689849171465539e-14
  endloop
endfacet
facet normal 6.548899677959008e-17 2.956646472176433e-17 -1.0
  outer loop
    vertex 139.84489148449114 114.15747679405136 1.2689849171465539e-14
    vertex 139.22305672047779 142.039265805656 1.8329782136561334e-14
    vertex 139.88401688500775 137.08483464644155 2.1149748619109232e-14
  endloop
endfacet
facet normal 6.548899677959008e-17 2.956646472176433e-17 -1.0
  outer loop
    vertex 139.84489148449114 114.15747679405136 1.2689849171465539e-14
    vertex 139.88401688500775 137.08483464644155 2.1149748619109232e-14
    vertex 140.2771014543289 118.60422830794147 2.1149748619109232e-14
  endloop
endfacet
facet normal 6.548899677959008e-17 2.956646472176433e-17 -1.0
  outer loop
    vertex 140.2771014543289 118.60422830794147 2.1149748619109232e-14
    vertex 139.88401688500775 137.08483464644155 2.1149748619109232e-14
    vertex 140.2771014543289 132.5675540372218 1.8329782136561334e-14
  endloop
endfacet
facet normal 6.548899677959008e-17 2.956646472176433e-17 -1.0
  outer loop
    vertex 77.00204451130791 88.1808534314626 1.4099832412739488e-14
    vertex 78.82710145432893 109.47654715947743 1.4099832412739488e-14
    vertex 85.22351148402194 80.55099181226623 1.4099832412739488e-14
  endloop
endfacet
facet normal 6.548899677959008e-17 2.956646472176433e-17 -1.0
  outer loop
    vertex 78.82710145432893 109.47654715947743 1.4099832412739488e-14
    vertex 77.00204451130791 88.1808534314626 1.4099832412739488e-14
    vertex 78.82710145432893 112.47654715947742 1.4099832412739488e-14
  endloop
endfacet
facet normal 6.548899677959008e-17 2.956646472176433e-17 -1.0
  outer loop
    vertex 85.22351148402194 80.55099181226623 1.4099832412739488e-14
    vertex 78.82710145432893 109.47654715947743 1.4099832412739488e-14
    vertex 82.82710145432893 109.47654715947743 1.4099832412739488e-14
  endloop
endfacet
facet normal 6.548899677959008e-17 2.956646472176433e-17 -1.0
  outer loop
    vertex 110.84668059638993 176.70458228276468 1.8329782136561334e-14
    vertex 108.82710145432883 138.1848346464415 8.459899447643692e-15
    vertex 108.82710145432883 176.94208078191753 1.6919798895287383e-14
  endloop
endfacet
facet normal 6.548899677959008e-17 2.956646472176433e-17 -1.0
  outer loop
    vertex 94.55367819127181 76.05344194186873 1.4099832412739488e-14
    vertex 97.12710145432892 93.72220766053722 1.4099832412739488e-14
    vertex 104.3741731380685 74.92270384466187 1.4099832412739488e-14
  endloop
endfacet
facet normal 6.548899677959008e-17 2.956646472176433e-17 -1.0
  outer loop
    vertex 97.12710145432892 93.72220766053722 1.4099832412739488e-14
    vertex 94.55367819127181 76.05344194186873 1.4099832412739488e-14
    vertex 97.12710145432892 100.72220766053722 1.4099832412739488e-14
  endloop
endfacet
facet normal 6.548899677959008e-17 2.956646472176433e-17 -1.0
  outer loop
    vertex 104.3741731380685 74.92270384466187 1.4099832412739488e-14
    vertex 97.12710145432892 93.72220766053722 1.4099832412739488e-14
    vertex 111.12710145432894 93.72220766053722 1.4099832412739488e-14
  endloop
endfacet
facet normal 6.548899677959008e-17 2.956646472176433e-17 -1.0
  outer loop
    vertex 104.3741731380685 74.92270384466187 1.4099832412739488e-14
    vertex 111.12710145432894 93.72220766053722 1.4099832412739488e-14
    vertex 114.09577457137503 77.20821122168425 1.4099832412739488e-14
  endloop
endfacet
facet normal -1.0 0.0 0.0
  outer loop
    vertex 76.37536447289494 122.48589117258165 6.500000000000016
    vertex 76.37536447289494 114.78589117258164 1.5000000000000187
    vertex 76.37536447289494 114.78589117258164 6.500000000000018
  endloop
endfacet
facet normal -1.0 0.0 0.0
  outer loop
    vertex 76.37536447289494 114.78589117258164 1.5000000000000187
    vertex 76.37536447289494 122.48589117258165 6.500000000000016
    vertex 76.37536447289494 122.48589117258165 1.500000000000019
  endloop
endfacet
facet normal -0.0 1.0 -0.0
  outer loop
    vertex 107.12710145432882 136.38589117258164 6.5000000000000195
    vertex 139.94483752427493 136.38589117258164 1.5000000000000204
    vertex 107.12710145432882 136.38589117258164 1.5000000000000138
  endloop
endfacet
facet normal -0.0 1.0 -0.0
  outer loop
    vertex 139.94483752427493 136.38589117258164 1.5000000000000204
    vertex 107.12710145432882 136.38589117258164 6.5000000000000195
    vertex 139.94483752427493 136.38589117258164 6.50000000000002
  endloop
endfacet
facet normal -1.5399702441979086e-17 -4.692460129414362e-16 1.0
  outer loop
    vertex 139.90597134441623 114.78589117258164 6.500000000000016
    vertex 94.05408926761721 116.28589117258163 6.500000000000016
    vertex 94.05408926761721 114.78589117258164 6.500000000000016
  endloop
endfacet
facet normal -1.5399702441979086e-17 -4.692460129414362e-16 1.0
  outer loop
    vertex 94.05408926761721 116.28589117258163 6.500000000000016
    vertex 139.90597134441623 114.78589117258164 6.500000000000016
    vertex 140.05176652832333 116.28589117258163 6.500000000000018
  endloop
endfacet
facet normal 0.0 -1.0 0.0
  outer loop
    vertex 84.05408926761723 114.78589117258164 6.500000000000016
    vertex 76.37536447289494 114.78589117258164 1.5000000000000187
    vertex 84.05408926761723 114.78589117258164 1.5000000000000182
  endloop
endfacet
facet normal 0.0 -1.0 0.0
  outer loop
    vertex 76.37536447289494 114.78589117258164 1.5000000000000187
    vertex 84.05408926761723 114.78589117258164 6.500000000000016
    vertex 76.37536447289494 114.78589117258164 6.500000000000018
  endloop
endfacet
facet normal 0.0 -1.0 0.0
  outer loop
    vertex 139.90597134441623 114.78589117258164 6.500000000000016
    vertex 94.05408926761721 114.78589117258164 1.5000000000000178
    vertex 139.90597134441623 114.78589117258164 1.5000000000000164
  endloop
endfacet
facet normal 0.0 -1.0 0.0
  outer loop
    vertex 94.05408926761721 114.78589117258164 1.5000000000000178
    vertex 139.90597134441623 114.78589117258164 6.500000000000016
    vertex 94.05408926761721 114.78589117258164 6.500000000000016
  endloop
endfacet
facet normal -0.0 1.0 -0.0
  outer loop
    vertex 78.25176652832332 116.28589117258163 6.500000000000015
    vertex 84.05408926761721 116.28589117258163 1.5000000000000184
    vertex 78.25176652832332 116.28589117258163 1.5000000000000182
  endloop
endfacet
facet normal -0.0 1.0 -0.0
  outer loop
    vertex 84.05408926761721 116.28589117258163 1.5000000000000184
    vertex 78.25176652832332 116.28589117258163 6.500000000000015
    vertex 84.05408926761721 116.28589117258163 6.500000000000015
  endloop
endfacet
facet normal 0.0 -1.0 0.0
  outer loop
    vertex 140.07536447289493 134.88589117258164 1.5000000000000195
    vertex 107.12710145432882 134.88589117258164 6.5000000000000195
    vertex 107.12710145432882 134.88589117258164 1.500000000000019
  endloop
endfacet
facet normal 0.0 -1.0 0.0
  outer loop
    vertex 107.12710145432882 134.88589117258164 6.5000000000000195
    vertex 140.07536447289493 134.88589117258164 1.5000000000000195
    vertex 140.07536447289493 134.88589117258164 6.5000000000000195
  endloop
endfacet
facet normal 1.0 -0.0 -0.0
  outer loop
    vertex 78.25176652832332 134.88589117258164 1.5000000000000189
    vertex 78.25176652832332 128.58589117258163 6.500000000000016
    vertex 78.25176652832332 128.58589117258163 1.5000000000000184
  endloop
endfacet
facet normal 1.0 -0.0 -0.0
  outer loop
    vertex 78.25176652832332 128.58589117258163 6.500000000000016
    vertex 78.25176652832332 134.88589117258164 1.5000000000000189
    vertex 78.25176652832332 134.88589117258164 6.500000000000016
  endloop
endfacet
facet normal 0.0 -1.0 0.0
  outer loop
    vertex 78.25176652832332 128.58589117258163 6.500000000000016
    vertex 76.37536447289494 128.58589117258163 1.5000000000000193
    vertex 78.25176652832332 128.58589117258163 1.5000000000000184
  endloop
endfacet
facet normal 0.0 -1.0 0.0
  outer loop
    vertex 76.37536447289494 128.58589117258163 1.5000000000000193
    vertex 78.25176652832332 128.58589117258163 6.500000000000016
    vertex 76.37536447289494 128.58589117258163 6.500000000000018
  endloop
endfacet
facet normal 0.9962353034469575 0.08669036951096974 8.554938122745882e-16
  outer loop
    vertex 139.88401688500775 137.08483464644155 2.1149748619109232e-14
    vertex 140.2771014543289 132.5675540372218 1.5000000000000182
    vertex 140.2771014543289 132.5675540372218 1.8329782136561334e-14
  endloop
endfacet
facet normal 0.9962353034469575 0.08669036951096974 8.554938122745882e-16
  outer loop
    vertex 140.2771014543289 132.5675540372218 1.5000000000000182
    vertex 139.88401688500775 137.08483464644155 2.1149748619109232e-14
    vertex 140.07536447289493 134.88589117258164 1.5000000000000195
  endloop
endfacet
facet normal 0.9962353034469575 0.08669036951096974 8.554938122745882e-16
  outer loop
    vertex 140.07536447289493 134.88589117258164 1.5000000000000195
    vertex 139.88401688500775 137.08483464644155 2.1149748619109232e-14
    vertex 139.94483752427493 136.38589117258164 1.5000000000000204
  endloop
endfacet
facet normal 0.9962353034469575 0.08669036951096974 8.554938122745882e-16
  outer loop
    vertex 140.07536447289493 134.88589117258164 1.5000000000000195
    vertex 139.94483752427493 136.38589117258164 1.5000000000000204
    vertex 140.07536447289493 134.88589117258164 6.5000000000000195
  endloop
endfacet
facet normal 0.9962353034469575 0.08669036951096974 8.554938122745882e-16
  outer loop
    vertex 139.94483752427493 136.38589117258164 1.5000000000000204
    vertex 139.88401688500775 137.08483464644155 2.1149748619109232e-14
    vertex 139.88401688500775 137.08483464644155 1.5000000000000213
  endloop
endfacet
facet normal 0.9962353034469575 0.08669036951096974 8.554938122745882e-16
  outer loop
    vertex 139.94483752427493 136.38589117258164 6.50000000000002
    vertex 140.07536447289493 134.88589117258164 6.5000000000000195
    vertex 139.94483752427493 136.38589117258164 1.5000000000000204
  endloop
endfacet
facet normal 1.0 1.4167756354736492e-33 7.015296034849487e-18
  outer loop
    vertex 140.2771014543289 132.5675540372218 1.8329782136561334e-14
    vertex 140.2771014543289 118.60422830794147 1.500000000000021
    vertex 140.2771014543289 118.60422830794147 2.1149748619109232e-14
  endloop
endfacet
facet normal 1.0 1.4167756354736492e-33 7.015296034849487e-18
  outer loop
    vertex 140.2771014543289 118.60422830794147 1.500000000000021
    vertex 140.2771014543289 132.5675540372218 1.8329782136561334e-14
    vertex 140.2771014543289 132.5675540372218 1.5000000000000182
  endloop
endfacet
facet normal -0.0 1.0 -0.0
  outer loop
    vertex 76.37536447289494 136.38589117258164 1.5000000000000198
    vertex 80.25176652832332 136.38589117258164 6.500000000000018
    vertex 80.25176652832332 136.38589117258164 1.5000000000000195
  endloop
endfacet
facet normal -0.0 1.0 -0.0
  outer loop
    vertex 80.25176652832332 136.38589117258164 6.500000000000018
    vertex 76.37536447289494 136.38589117258164 1.5000000000000198
    vertex 76.37536447289494 136.38589117258164 6.5000000000000195
  endloop
endfacet
facet normal 1.867495532675459e-16 1.3115686301090379e-16 1.0
  outer loop
    vertex 78.25176652832332 122.48589117258165 6.500000000000016
    vertex 76.37536447289494 122.48589117258165 6.500000000000016
    vertex 78.25176652832332 116.28589117258163 6.500000000000015
  endloop
endfacet
facet normal 1.867495532675459e-16 1.3115686301090379e-16 1.0
  outer loop
    vertex 76.37536447289494 114.78589117258164 6.500000000000018
    vertex 78.25176652832332 116.28589117258163 6.500000000000015
    vertex 76.37536447289494 122.48589117258165 6.500000000000016
  endloop
endfacet
facet normal 1.867495532675459e-16 1.3115686301090379e-16 1.0
  outer loop
    vertex 78.25176652832332 116.28589117258163 6.500000000000015
    vertex 76.37536447289494 114.78589117258164 6.500000000000018
    vertex 84.05408926761723 114.78589117258164 6.500000000000016
  endloop
endfacet
facet normal 1.867495532675459e-16 1.3115686301090379e-16 1.0
  outer loop
    vertex 78.25176652832332 116.28589117258163 6.500000000000015
    vertex 84.05408926761723 114.78589117258164 6.500000000000016
    vertex 84.05408926761721 116.28589117258163 6.500000000000015
  endloop
endfacet
facet normal -0.0 1.0 -0.0
  outer loop
    vertex 94.05408926761721 116.28589117258163 1.5000000000000184
    vertex 140.05176652832333 116.28589117258163 6.500000000000018
    vertex 140.05176652832333 116.28589117258163 1.5000000000000182
  endloop
endfacet
facet normal -0.0 1.0 -0.0
  outer loop
    vertex 140.05176652832333 116.28589117258163 6.500000000000018
    vertex 94.05408926761721 116.28589117258163 1.5000000000000184
    vertex 94.05408926761721 116.28589117258163 6.500000000000016
  endloop
endfacet
facet normal -1.0 0.0 0.0
  outer loop
    vertex 76.37536447289494 136.38589117258164 6.5000000000000195
    vertex 76.37536447289494 128.58589117258163 1.5000000000000193
    vertex 76.37536447289494 128.58589117258163 6.500000000000018
  endloop
endfacet
facet normal -1.0 0.0 0.0
  outer loop
    vertex 76.37536447289494 128.58589117258163 1.5000000000000193
    vertex 76.37536447289494 136.38589117258164 6.5000000000000195
    vertex 76.37536447289494 136.38589117258164 1.5000000000000198
  endloop
endfacet
facet normal -9.723722884402909e-17 -2.3499720687899187e-16 1.0
  outer loop
    vertex 94.12710145432884 134.88589117258164 6.5000000000000195
    vertex 83.2517665283233 136.38589117258164 6.500000000000018
    vertex 83.2517665283233 134.88589117258164 6.500000000000018
  endloop
endfacet
facet normal -9.723722884402909e-17 -2.3499720687899187e-16 1.0
  outer loop
    vertex 83.2517665283233 136.38589117258164 6.500000000000018
    vertex 94.12710145432884 134.88589117258164 6.5000000000000195
    vertex 94.12710145432884 136.38589117258164 6.5000000000000195
  endloop
endfacet
facet normal -0.0 1.0 -0.0
  outer loop
    vertex 83.2517665283233 136.38589117258164 1.500000000000019
    vertex 94.12710145432884 136.38589117258164 6.5000000000000195
    vertex 94.12710145432884 136.38589117258164 1.5000000000000167
  endloop
endfacet
facet normal -0.0 1.0 -0.0
  outer loop
    vertex 94.12710145432884 136.38589117258164 6.5000000000000195
    vertex 83.2517665283233 136.38589117258164 1.500000000000019
    vertex 83.2517665283233 136.38589117258164 6.500000000000018
  endloop
endfacet
facet normal 0.0 -1.0 0.0
  outer loop
    vertex 80.25176652832332 134.88589117258164 6.500000000000016
    vertex 78.25176652832332 134.88589117258164 1.5000000000000189
    vertex 80.25176652832332 134.88589117258164 1.5000000000000189
  endloop
endfacet
facet normal 0.0 -1.0 0.0
  outer loop
    vertex 78.25176652832332 134.88589117258164 1.5000000000000189
    vertex 80.25176652832332 134.88589117258164 6.500000000000016
    vertex 78.25176652832332 134.88589117258164 6.500000000000016
  endloop
endfacet
facet normal -1.0 0.0 0.0
  outer loop
    vertex 83.2517665283233 136.38589117258164 6.500000000000018
    vertex 83.2517665283233 134.88589117258164 1.500000000000019
    vertex 83.2517665283233 134.88589117258164 6.500000000000018
  endloop
endfacet
facet normal -1.0 0.0 0.0
  outer loop
    vertex 83.2517665283233 134.88589117258164 1.500000000000019
    vertex 83.2517665283233 136.38589117258164 6.500000000000018
    vertex 83.2517665283233 136.38589117258164 1.500000000000019
  endloop
endfacet
facet normal 1.0 -0.0 -0.0
  outer loop
    vertex 80.25176652832332 136.38589117258164 1.5000000000000195
    vertex 80.25176652832332 134.88589117258164 6.500000000000016
    vertex 80.25176652832332 134.88589117258164 1.5000000000000189
  endloop
endfacet
facet normal 1.0 -0.0 -0.0
  outer loop
    vertex 80.25176652832332 134.88589117258164 6.500000000000016
    vertex 80.25176652832332 136.38589117258164 1.5000000000000195
    vertex 80.25176652832332 136.38589117258164 6.500000000000018
  endloop
endfacet
facet normal -1.0 -0.0 -9.055772990542293e-18
  outer loop
    vertex 73.82710145432893 128.39085511864792 1.5000000000000142
    vertex 73.82710145432893 93.19613014345003 1.4099832412739488e-14
    vertex 73.82710145432893 93.19613014345003 1.5000000000000142
  endloop
endfacet
facet normal -1.0 -0.0 -9.055772990542293e-18
  outer loop
    vertex 73.82710145432893 93.19613014345003 1.4099832412739488e-14
    vertex 73.82710145432893 128.39085511864792 1.5000000000000142
    vertex 73.82710145432893 128.39085511864792 1.4099832412739488e-14
  endloop
endfacet
facet normal -0.8449255853384157 -0.5348838707986397 -2.857027687081159e-17
  outer loop
    vertex 73.82710145432893 93.19613014345003 1.5000000000000142
    vertex 77.00204451130791 88.1808534314626 1.4099832412739488e-14
    vertex 77.00204451130791 88.1808534314626 1.5000000000000142
  endloop
endfacet
facet normal -0.8449255853384157 -0.5348838707986397 -2.857027687081159e-17
  outer loop
    vertex 77.00204451130791 88.1808534314626 1.4099832412739488e-14
    vertex 73.82710145432893 93.19613014345003 1.5000000000000142
    vertex 73.82710145432893 93.19613014345003 1.4099832412739488e-14
  endloop
endfacet
facet normal -0.6802424455856012 -0.7329871862616156 -3.482658455538139e-17
  outer loop
    vertex 85.22351148402194 80.55099181226623 1.5000000000000142
    vertex 77.00204451130791 88.1808534314626 1.4099832412739488e-14
    vertex 85.22351148402194 80.55099181226623 1.4099832412739488e-14
  endloop
endfacet
facet normal -0.6802424455856012 -0.7329871862616156 -3.482658455538139e-17
  outer loop
    vertex 77.00204451130791 88.1808534314626 1.4099832412739488e-14
    vertex 85.22351148402194 80.55099181226623 1.5000000000000142
    vertex 77.00204451130791 88.1808534314626 1.5000000000000142
  endloop
endfacet
facet normal -0.43422685068558786 -0.9008035535807329 -3.916186894441007e-17
  outer loop
    vertex 94.55367819127181 76.05344194186873 1.5000000000000142
    vertex 85.22351148402194 80.55099181226623 1.4099832412739488e-14
    vertex 94.55367819127181 76.05344194186873 1.4099832412739488e-14
  endloop
endfacet
facet normal -0.43422685068558786 -0.9008035535807329 -3.916186894441007e-17
  outer loop
    vertex 85.22351148402194 80.55099181226623 1.4099832412739488e-14
    vertex 94.55367819127181 76.05344194186873 1.5000000000000142
    vertex 85.22351148402194 80.55099181226623 1.5000000000000142
  endloop
endfacet
facet normal -0.11438491747323457 -0.9934365055979378 -3.9888243658088024e-17
  outer loop
    vertex 104.3741731380685 74.92270384466187 1.5000000000000142
    vertex 94.55367819127181 76.05344194186873 1.4099832412739488e-14
    vertex 104.3741731380685 74.92270384466187 1.4099832412739488e-14
  endloop
endfacet
facet normal -0.11438491747323457 -0.9934365055979378 -3.9888243658088024e-17
  outer loop
    vertex 94.55367819127181 76.05344194186873 1.4099832412739488e-14
    vertex 104.3741731380685 74.92270384466187 1.5000000000000142
    vertex 94.55367819127181 76.05344194186873 1.5000000000000142
  endloop
endfacet
facet normal 0.22885637534285064 -0.9734601992197381 -3.599867322302089e-17
  outer loop
    vertex 114.09577457137503 77.20821122168425 1.5000000000000142
    vertex 104.3741731380685 74.92270384466187 1.4099832412739488e-14
    vertex 114.09577457137503 77.20821122168425 1.4099832412739488e-14
  endloop
endfacet
facet normal 0.22885637534285064 -0.9734601992197381 -3.599867322302089e-17
  outer loop
    vertex 104.3741731380685 74.92270384466187 1.4099832412739488e-14
    vertex 114.09577457137503 77.20821122168425 1.5000000000000142
    vertex 104.3741731380685 74.92270384466187 1.5000000000000142
  endloop
endfacet
facet normal 0.5270794820890138 -0.8498159915892248 -2.8462419761578254e-17
  outer loop
    vertex 123.12023368493782 82.8054314232186 1.5000000000000142
    vertex 114.09577457137503 77.20821122168425 1.4099832412739488e-14
    vertex 123.12023368493782 82.8054314232186 1.4099832412739488e-14
  endloop
endfacet
facet normal 0.5270794820890138 -0.8498159915892248 -2.8462419761578254e-17
  outer loop
    vertex 114.09577457137503 77.20821122168425 1.4099832412739488e-14
    vertex 123.12023368493782 82.8054314232186 1.5000000000000142
    vertex 114.09577457137503 77.20821122168425 1.5000000000000142
  endloop
endfacet
facet normal 0.7446303407368166 -0.6674770824936033 -1.9361219379048978e-17
  outer loop
    vertex 130.82602295827314 91.40192805620192 1.2689849171465539e-14
    vertex 123.12023368493782 82.8054314232186 1.5000000000000142
    vertex 123.12023368493782 82.8054314232186 1.4099832412739488e-14
  endloop
endfacet
facet normal 0.7446303407368166 -0.6674770824936033 -1.9361219379048978e-17
  outer loop
    vertex 123.12023368493782 82.8054314232186 1.5000000000000142
    vertex 130.82602295827314 91.40192805620192 1.2689849171465539e-14
    vertex 130.82602295827314 91.40192805620192 1.5000000000000127
  endloop
endfacet
facet normal 0.8848043109531833 -0.4659628003592805 -1.0210795102280593e-17
  outer loop
    vertex 136.64042453192462 102.44273984206349 1.2689849171465539e-14
    vertex 130.82602295827314 91.40192805620192 1.5000000000000127
    vertex 130.82602295827314 91.40192805620192 1.2689849171465539e-14
  endloop
endfacet
facet normal 0.8848043109531833 -0.4659628003592805 -1.0210795102280593e-17
  outer loop
    vertex 130.82602295827314 91.40192805620192 1.5000000000000127
    vertex 136.64042453192462 102.44273984206349 1.2689849171465539e-14
    vertex 136.64042453192462 102.44273984206349 1.5000000000000127
  endloop
endfacet
facet normal 0.9645641750943985 -0.2638483506191813 -1.5839952453741125e-18
  outer loop
    vertex 139.84489148449114 114.15747679405136 1.2689849171465539e-14
    vertex 136.64042453192462 102.44273984206349 1.5000000000000127
    vertex 136.64042453192462 102.44273984206349 1.2689849171465539e-14
  endloop
endfacet
facet normal 0.9645641750943985 -0.2638483506191813 -1.5839952453741125e-18
  outer loop
    vertex 136.64042453192462 102.44273984206349 1.5000000000000127
    vertex 139.84489148449114 114.15747679405136 1.2689849171465539e-14
    vertex 139.84489148449114 114.15747679405136 1.5000000000000127
  endloop
endfacet
facet normal -1.0 2.8374418118768722e-33 -9.055772990542293e-18
  outer loop
    vertex 127.5742157713589 146.33483464644155 1.5000000000000395
    vertex 127.5742157713589 141.83483464644155 3.8069547514396615e-14
    vertex 127.5742157713589 141.83483464644155 1.5000000000000382
  endloop
endfacet
facet normal -1.0 2.8374418118768722e-33 -9.055772990542293e-18
  outer loop
    vertex 127.5742157713589 141.83483464644155 3.8069547514396615e-14
    vertex 127.5742157713589 146.33483464644155 1.5000000000000395
    vertex 127.5742157713589 146.33483464644155 3.947953075567056e-14
  endloop
endfacet
facet normal -0.5000000000000012 0.8660254037844379 2.934158079881689e-17
  outer loop
    vertex 123.67710145432892 139.58483464644155 1.5000000000000366
    vertex 127.5742157713589 141.83483464644155 3.8069547514396615e-14
    vertex 123.67710145432892 139.58483464644155 3.665956427312267e-14
  endloop
endfacet
facet normal -0.5000000000000012 0.8660254037844379 2.934158079881689e-17
  outer loop
    vertex 127.5742157713589 141.83483464644155 3.8069547514396615e-14
    vertex 123.67710145432892 139.58483464644155 1.5000000000000366
    vertex 127.5742157713589 141.83483464644155 1.5000000000000382
  endloop
endfacet
facet normal 0.5000000000000012 0.8660254037844379 3.839735378935921e-17
  outer loop
    vertex 119.77998713729895 141.83483464644155 1.5000000000000366
    vertex 123.67710145432892 139.58483464644155 3.665956427312267e-14
    vertex 119.77998713729895 141.83483464644155 3.665956427312267e-14
  endloop
endfacet
facet normal 0.5000000000000012 0.8660254037844379 3.839735378935921e-17
  outer loop
    vertex 123.67710145432892 139.58483464644155 3.665956427312267e-14
    vertex 119.77998713729895 141.83483464644155 1.5000000000000366
    vertex 123.67710145432892 139.58483464644155 1.5000000000000366
  endloop
endfacet
facet normal 1.0 -2.8374418118768722e-33 9.055772990542293e-18
  outer loop
    vertex 119.77998713729895 146.33483464644155 3.8069547514396615e-14
    vertex 119.77998713729895 141.83483464644155 1.5000000000000366
    vertex 119.77998713729895 141.83483464644155 3.665956427312267e-14
  endloop
endfacet
facet normal 1.0 -2.8374418118768722e-33 9.055772990542293e-18
  outer loop
    vertex 119.77998713729895 141.83483464644155 1.5000000000000366
    vertex 119.77998713729895 146.33483464644155 3.8069547514396615e-14
    vertex 119.77998713729895 146.33483464644155 1.5000000000000382
  endloop
endfacet
facet normal 0.5000000000000012 -0.8660254037844379 -2.934158079881689e-17
  outer loop
    vertex 123.67710145432892 148.58483464644155 3.947953075567056e-14
    vertex 119.77998713729895 146.33483464644155 1.5000000000000382
    vertex 119.77998713729895 146.33483464644155 3.8069547514396615e-14
  endloop
endfacet
facet normal 0.5000000000000012 -0.8660254037844379 -2.934158079881689e-17
  outer loop
    vertex 119.77998713729895 146.33483464644155 1.5000000000000382
    vertex 123.67710145432892 148.58483464644155 3.947953075567056e-14
    vertex 123.67710145432892 148.58483464644155 1.5000000000000395
  endloop
endfacet
facet normal -0.5000000000000012 -0.8660254037844379 -3.839735378935921e-17
  outer loop
    vertex 127.5742157713589 146.33483464644155 1.5000000000000395
    vertex 123.67710145432892 148.58483464644155 3.947953075567056e-14
    vertex 127.5742157713589 146.33483464644155 3.947953075567056e-14
  endloop
endfacet
facet normal -0.5000000000000012 -0.8660254037844379 -3.839735378935921e-17
  outer loop
    vertex 123.67710145432892 148.58483464644155 3.947953075567056e-14
    vertex 127.5742157713589 146.33483464644155 1.5000000000000395
    vertex 123.67710145432892 148.58483464644155 1.5000000000000395
  endloop
endfacet
facet normal 0.0 -1.0 -3.9109092119101956e-17
  outer loop
    vertex 111.12710145432894 100.72220766053722 1.5000000000000142
    vertex 97.12710145432892 100.72220766053722 1.4099832412739488e-14
    vertex 111.12710145432894 100.72220766053722 1.4099832412739488e-14
  endloop
endfacet
facet normal 0.0 -1.0 -3.9109092119101956e-17
  outer loop
    vertex 97.12710145432892 100.72220766053722 1.4099832412739488e-14
    vertex 111.12710145432894 100.72220766053722 1.5000000000000142
    vertex 97.12710145432892 100.72220766053722 1.5000000000000142
  endloop
endfacet
facet normal -1.0 0.0 0.0
  outer loop
    vertex 111.12710145432894 100.72220766053722 1.5000000000000142
    vertex 111.12710145432894 99.72220766053722 1.4099832412739488e-14
    vertex 111.12710145432894 99.72220766053722 1.5000000000000142
  endloop
endfacet
facet normal -1.0 0.0 0.0
  outer loop
    vertex 111.12710145432894 99.72220766053722 1.4099832412739488e-14
    vertex 111.12710145432894 100.72220766053722 1.5000000000000142
    vertex 111.12710145432894 100.72220766053722 1.4099832412739488e-14
  endloop
endfacet
facet normal -1.0 0.0 0.0
  outer loop
    vertex 111.12710145432894 99.72220766053722 1.5000000000000142
    vertex 111.12710145432894 93.72220766053722 1.4099832412739488e-14
    vertex 111.12710145432894 93.72220766053722 1.5000000000000142
  endloop
endfacet
facet normal -1.0 0.0 0.0
  outer loop
    vertex 111.12710145432894 93.72220766053722 1.4099832412739488e-14
    vertex 111.12710145432894 99.72220766053722 1.5000000000000142
    vertex 111.12710145432894 99.72220766053722 1.4099832412739488e-14
  endloop
endfacet
facet normal 0.0 1.0 3.9109092119101956e-17
  outer loop
    vertex 97.12710145432892 93.72220766053722 1.5000000000000142
    vertex 111.12710145432894 93.72220766053722 1.4099832412739488e-14
    vertex 97.12710145432892 93.72220766053722 1.4099832412739488e-14
  endloop
endfacet
facet normal 0.0 1.0 3.9109092119101956e-17
  outer loop
    vertex 111.12710145432894 93.72220766053722 1.4099832412739488e-14
    vertex 97.12710145432892 93.72220766053722 1.5000000000000142
    vertex 111.12710145432894 93.72220766053722 1.5000000000000142
  endloop
endfacet
facet normal 1.0 -0.0 9.055772990542293e-18
  outer loop
    vertex 97.12710145432892 100.72220766053722 1.4099832412739488e-14
    vertex 97.12710145432892 93.72220766053722 1.5000000000000142
    vertex 97.12710145432892 93.72220766053722 1.4099832412739488e-14
  endloop
endfacet
facet normal 1.0 -0.0 9.055772990542293e-18
  outer loop
    vertex 97.12710145432892 93.72220766053722 1.5000000000000142
    vertex 97.12710145432892 100.72220766053722 1.4099832412739488e-14
    vertex 97.12710145432892 100.72220766053722 1.5000000000000142
  endloop
endfacet
facet normal 0.0 -1.0 -3.9109092119101956e-17
  outer loop
    vertex 82.82710145432893 112.47654715947742 1.5000000000000142
    vertex 78.82710145432893 112.47654715947742 1.4099832412739488e-14
    vertex 82.82710145432893 112.47654715947742 1.4099832412739488e-14
  endloop
endfacet
facet normal 0.0 -1.0 -3.9109092119101956e-17
  outer loop
    vertex 78.82710145432893 112.47654715947742 1.4099832412739488e-14
    vertex 82.82710145432893 112.47654715947742 1.5000000000000142
    vertex 78.82710145432893 112.47654715947742 1.5000000000000142
  endloop
endfacet
facet normal -1.0 -0.0 -9.055772990542293e-18
  outer loop
    vertex 82.82710145432893 112.47654715947742 1.5000000000000142
    vertex 82.82710145432893 109.47654715947743 1.4099832412739488e-14
    vertex 82.82710145432893 109.47654715947743 1.5000000000000142
  endloop
endfacet
facet normal -1.0 -0.0 -9.055772990542293e-18
  outer loop
    vertex 82.82710145432893 109.47654715947743 1.4099832412739488e-14
    vertex 82.82710145432893 112.47654715947742 1.5000000000000142
    vertex 82.82710145432893 112.47654715947742 1.4099832412739488e-14
  endloop
endfacet
facet normal 0.0 1.0 3.9109092119101956e-17
  outer loop
    vertex 78.82710145432893 109.47654715947743 1.5000000000000142
    vertex 82.82710145432893 109.47654715947743 1.4099832412739488e-14
    vertex 78.82710145432893 109.47654715947743 1.4099832412739488e-14
  endloop
endfacet
facet normal 0.0 1.0 3.9109092119101956e-17
  outer loop
    vertex 82.82710145432893 109.47654715947743 1.4099832412739488e-14
    vertex 78.82710145432893 109.47654715947743 1.5000000000000142
    vertex 82.82710145432893 109.47654715947743 1.5000000000000142
  endloop
endfacet
facet normal 1.0 -0.0 9.055772990542293e-18
  outer loop
    vertex 78.82710145432893 112.47654715947742 1.4099832412739488e-14
    vertex 78.82710145432893 109.47654715947743 1.5000000000000142
    vertex 78.82710145432893 109.47654715947743 1.4099832412739488e-14
  endloop
endfacet
facet normal 1.0 -0.0 9.055772990542293e-18
  outer loop
    vertex 78.82710145432893 109.47654715947743 1.5000000000000142
    vertex 78.82710145432893 112.47654715947742 1.4099832412739488e-14
    vertex 78.82710145432893 112.47654715947742 1.5000000000000142
  endloop
endfacet
facet normal 0.9953095994566694 -0.09674089739817528 1.3751543672762178e-15
  outer loop
    vertex 140.2771014543289 118.60422830794147 2.1149748619109232e-14
    vertex 139.84489148449114 114.15747679405136 1.5000000000000127
    vertex 139.84489148449114 114.15747679405136 1.2689849171465539e-14
  endloop
endfacet
facet normal 0.9953095994566694 -0.09674089739817528 1.3751543672762178e-15
  outer loop
    vertex 139.84489148449114 114.15747679405136 1.5000000000000127
    vertex 140.2771014543289 118.60422830794147 2.1149748619109232e-14
    vertex 139.90597134441623 114.78589117258164 1.5000000000000164
  endloop
endfacet
facet normal 0.9953095994566694 -0.09674089739817528 1.3751543672762178e-15
  outer loop
    vertex 139.90597134441623 114.78589117258164 1.5000000000000164
    vertex 140.2771014543289 118.60422830794147 2.1149748619109232e-14
    vertex 140.05176652832333 116.28589117258163 1.5000000000000182
  endloop
endfacet
facet normal 0.9953095994566694 -0.09674089739817528 1.3751543672762178e-15
  outer loop
    vertex 139.90597134441623 114.78589117258164 1.5000000000000164
    vertex 140.05176652832333 116.28589117258163 1.5000000000000182
    vertex 139.90597134441623 114.78589117258164 6.500000000000016
  endloop
endfacet
facet normal 0.9953095994566694 -0.09674089739817528 1.3751543672762178e-15
  outer loop
    vertex 140.05176652832333 116.28589117258163 1.5000000000000182
    vertex 140.2771014543289 118.60422830794147 2.1149748619109232e-14
    vertex 140.2771014543289 118.60422830794147 1.500000000000021
  endloop
endfacet
facet normal 0.9953095994566694 -0.09674089739817528 1.3751543672762178e-15
  outer loop
    vertex 140.05176652832333 116.28589117258163 6.500000000000018
    vertex 139.90597134441623 114.78589117258164 6.500000000000016
    vertex 140.05176652832333 116.28589117258163 1.5000000000000182
  endloop
endfacet
facet normal 0.9912182176644541 0.1322363224311058 1.414788967870862e-17
  outer loop
    vertex 139.22305672047779 142.039265805656 1.8329782136561334e-14
    vertex 139.88401688500775 137.08483464644155 1.5000000000000213
    vertex 139.88401688500775 137.08483464644155 2.1149748619109232e-14
  endloop
endfacet
facet normal 0.9912182176644541 0.1322363224311058 1.414788967870862e-17
  outer loop
    vertex 139.88401688500775 137.08483464644155 1.5000000000000213
    vertex 139.22305672047779 142.039265805656 1.8329782136561334e-14
    vertex 139.22305672047779 142.039265805656 1.5000000000000184
  endloop
endfacet
facet normal 0.943281745722476 0.33199329539428724 2.152610172788459e-17
  outer loop
    vertex 134.91181413099784 154.28865906887822 1.8329782136561334e-14
    vertex 139.22305672047779 142.039265805656 1.5000000000000184
    vertex 139.22305672047779 142.039265805656 1.8329782136561334e-14
  endloop
endfacet
facet normal 0.943281745722476 0.33199329539428724 2.152610172788459e-17
  outer loop
    vertex 139.22305672047779 142.039265805656 1.5000000000000184
    vertex 134.91181413099784 154.28865906887822 1.8329782136561334e-14
    vertex 134.91181413099784 154.28865906887822 1.5000000000000184
  endloop
endfacet
facet normal 0.8449255853384218 0.5348838707986301 2.857027687081127e-17
  outer loop
    vertex 128.3987634447969 164.57695427426657 1.8329782136561334e-14
    vertex 134.91181413099784 154.28865906887822 1.5000000000000184
    vertex 134.91181413099784 154.28865906887822 1.8329782136561334e-14
  endloop
endfacet
facet normal 0.8449255853384218 0.5348838707986301 2.857027687081127e-17
  outer loop
    vertex 134.91181413099784 154.28865906887822 1.5000000000000184
    vertex 128.3987634447969 164.57695427426657 1.8329782136561334e-14
    vertex 128.3987634447969 164.57695427426657 1.5000000000000184
  endloop
endfacet
facet normal 0.680242445585597 0.7329871862616195 3.4826584555381504e-17
  outer loop
    vertex 120.17729647208272 172.20681589346302 1.5000000000000184
    vertex 128.3987634447969 164.57695427426657 1.8329782136561334e-14
    vertex 120.17729647208272 172.20681589346302 1.8329782136561334e-14
  endloop
endfacet
facet normal 0.680242445585597 0.7329871862616195 3.4826584555381504e-17
  outer loop
    vertex 128.3987634447969 164.57695427426657 1.8329782136561334e-14
    vertex 120.17729647208272 172.20681589346302 1.5000000000000184
    vertex 128.3987634447969 164.57695427426657 1.5000000000000184
  endloop
endfacet
facet normal 0.434226850685578 0.9008035535807376 3.9161868944410155e-17
  outer loop
    vertex 110.84668059638993 176.70458228276468 1.5000000000000184
    vertex 120.17729647208272 172.20681589346302 1.8329782136561334e-14
    vertex 110.84668059638993 176.70458228276468 1.8329782136561334e-14
  endloop
endfacet
facet normal 0.434226850685578 0.9008035535807376 3.9161868944410155e-17
  outer loop
    vertex 120.17729647208272 172.20681589346302 1.8329782136561334e-14
    vertex 110.84668059638993 176.70458228276468 1.5000000000000184
    vertex 120.17729647208272 172.20681589346302 1.5000000000000184
  endloop
endfacet
facet normal 0.11679320465057144 0.9931562552526414 3.989909222349141e-17
  outer loop
    vertex 108.82710145432883 176.94208078191753 1.500000000000017
    vertex 110.84668059638993 176.70458228276468 1.8329782136561334e-14
    vertex 108.82710145432883 176.94208078191753 1.6919798895287383e-14
  endloop
endfacet
facet normal 0.11679320465057144 0.9931562552526414 3.989909222349141e-17
  outer loop
    vertex 110.84668059638993 176.70458228276468 1.8329782136561334e-14
    vertex 108.82710145432883 176.94208078191753 1.500000000000017
    vertex 110.84668059638993 176.70458228276468 1.5000000000000184
  endloop
endfacet
facet normal -1.0 0.0 0.0
  outer loop
    vertex 108.82710145432883 176.94208078191753 1.500000000000017
    vertex 108.82710145432883 138.1848346464415 8.459899447643692e-15
    vertex 108.82710145432883 138.1848346464415 1.5000000000000084
  endloop
endfacet
facet normal -1.0 0.0 0.0
  outer loop
    vertex 108.82710145432883 138.1848346464415 8.459899447643692e-15
    vertex 108.82710145432883 176.94208078191753 1.500000000000017
    vertex 108.82710145432883 176.94208078191753 1.6919798895287383e-14
  endloop
endfacet
facet normal 7.039539526642986e-16 1.0 -4.25653119536499e-29
  outer loop
    vertex 75.32710145432888 138.1848346464415 1.5509815654013436e-14
    vertex 108.82710145432883 138.1848346464415 1.5000000000000084
    vertex 108.82710145432883 138.1848346464415 8.459899447643692e-15
  endloop
endfacet
facet normal 7.039539526642986e-16 1.0 -4.25653119536499e-29
  outer loop
    vertex 108.82710145432883 138.1848346464415 1.5000000000000084
    vertex 75.32710145432888 138.1848346464415 1.5509815654013436e-14
    vertex 75.32710145432888 138.1848346464415 1.5000000000000155
  endloop
endfacet
facet normal -1.0 1.1517142646848841e-15 -9.055772990542247e-18
  outer loop
    vertex 75.32710145432888 138.1848346464415 1.5000000000000155
    vertex 75.32710145432888 128.39085511864792 1.5509815654013436e-14
    vertex 75.32710145432888 128.39085511864792 1.5000000000000155
  endloop
endfacet
facet normal -1.0 1.1517142646848841e-15 -9.055772990542247e-18
  outer loop
    vertex 75.32710145432888 128.39085511864792 1.5509815654013436e-14
    vertex 75.32710145432888 138.1848346464415 1.5000000000000155
    vertex 75.32710145432888 138.1848346464415 1.5509815654013436e-14
  endloop
endfacet
facet normal -3.6762109646249724e-32 1.0 3.9109092119101956e-17
  outer loop
    vertex 73.82710145432893 128.39085511864792 1.5000000000000142
    vertex 75.32710145432888 128.39085511864792 1.5509815654013436e-14
    vertex 73.82710145432893 128.39085511864792 1.4099832412739488e-14
  endloop
endfacet
facet normal -3.6762109646249724e-32 1.0 3.9109092119101956e-17
  outer loop
    vertex 75.32710145432888 128.39085511864792 1.5509815654013436e-14
    vertex 73.82710145432893 128.39085511864792 1.5000000000000142
    vertex 75.32710145432888 128.39085511864792 1.5000000000000155
  endloop
endfacet
facet normal 1.0 -0.0 -0.0
  outer loop
    vertex 78.25176652832332 122.48589117258165 1.5000000000000184
    vertex 78.25176652832332 116.28589117258163 6.500000000000015
    vertex 78.25176652832332 116.28589117258163 1.5000000000000182
  endloop
endfacet
facet normal 1.0 -0.0 -0.0
  outer loop
    vertex 78.25176652832332 116.28589117258163 6.500000000000015
    vertex 78.25176652832332 122.48589117258165 1.5000000000000184
    vertex 78.25176652832332 122.48589117258165 6.500000000000016
  endloop
endfacet
facet normal 4.959812494541562e-16 -2.811460050526021e-16 1.0
  outer loop
    vertex 78.25176652832332 128.58589117258163 6.500000000000016
    vertex 76.37536447289494 136.38589117258164 6.5000000000000195
    vertex 76.37536447289494 128.58589117258163 6.500000000000018
  endloop
endfacet
facet normal 4.959812494541562e-16 -2.811460050526021e-16 1.0
  outer loop
    vertex 76.37536447289494 136.38589117258164 6.5000000000000195
    vertex 78.25176652832332 128.58589117258163 6.500000000000016
    vertex 78.25176652832332 134.88589117258164 6.500000000000016
  endloop
endfacet
facet normal 4.959812494541562e-16 -2.811460050526021e-16 1.0
  outer loop
    vertex 76.37536447289494 136.38589117258164 6.5000000000000195
    vertex 78.25176652832332 134.88589117258164 6.500000000000016
    vertex 80.25176652832332 136.38589117258164 6.500000000000018
  endloop
endfacet
facet normal 4.959812494541562e-16 -2.811460050526021e-16 1.0
  outer loop
    vertex 80.25176652832332 136.38589117258164 6.500000000000018
    vertex 78.25176652832332 134.88589117258164 6.500000000000016
    vertex 80.25176652832332 134.88589117258164 6.500000000000016
  endloop
endfacet
facet normal 0.0 -1.0 0.0
  outer loop
    vertex 94.12710145432884 134.88589117258164 6.5000000000000195
    vertex 83.2517665283233 134.88589117258164 1.500000000000019
    vertex 94.12710145432884 134.88589117258164 1.500000000000019
  endloop
endfacet
facet normal 0.0 -1.0 0.0
  outer loop
    vertex 83.2517665283233 134.88589117258164 1.500000000000019
    vertex 94.12710145432884 134.88589117258164 6.5000000000000195
    vertex 83.2517665283233 134.88589117258164 6.500000000000018
  endloop
endfacet
facet normal -3.572961121450375e-17 -4.0462286804706414e-17 1.0
  outer loop
    vertex 75.32710145432888 138.1848346464415 1.5000000000000155
    vertex 76.37536447289494 136.38589117258164 1.5000000000000198
    vertex 108.82710145432883 138.1848346464415 1.5000000000000084
  endloop
endfacet
facet normal -3.572961121450375e-17 -4.0462286804706414e-17 1.0
  outer loop
    vertex 76.37536447289494 136.38589117258164 1.5000000000000198
    vertex 75.32710145432888 138.1848346464415 1.5000000000000155
    vertex 76.37536447289494 114.78589117258164 1.5000000000000187
  endloop
endfacet
facet normal -3.572961121450375e-17 -4.0462286804706414e-17 1.0
  outer loop
    vertex 76.37536447289494 136.38589117258164 1.5000000000000198
    vertex 76.37536447289494 114.78589117258164 1.5000000000000187
    vertex 76.37536447289494 122.48589117258165 1.500000000000019
  endloop
endfacet
facet normal -3.572961121450375e-17 -4.0462286804706414e-17 1.0
  outer loop
    vertex 76.37536447289494 136.38589117258164 1.5000000000000198
    vertex 76.37536447289494 122.48589117258165 1.500000000000019
    vertex 76.37536447289494 128.58589117258163 1.5000000000000193
  endloop
endfacet
facet normal -3.572961121450375e-17 -4.0462286804706414e-17 1.0
  outer loop
    vertex 108.82710145432883 138.1848346464415 1.5000000000000084
    vertex 76.37536447289494 136.38589117258164 1.5000000000000198
    vertex 80.25176652832332 136.38589117258164 1.5000000000000195
  endloop
endfacet
facet normal -3.572961121450375e-17 -4.0462286804706414e-17 1.0
  outer loop
    vertex 108.82710145432883 138.1848346464415 1.5000000000000084
    vertex 80.25176652832332 136.38589117258164 1.5000000000000195
    vertex 83.2517665283233 136.38589117258164 1.500000000000019
  endloop
endfacet
facet normal -3.572961121450375e-17 -4.0462286804706414e-17 1.0
  outer loop
    vertex 83.2517665283233 136.38589117258164 1.500000000000019
    vertex 80.25176652832332 136.38589117258164 1.5000000000000195
    vertex 83.2517665283233 134.88589117258164 1.500000000000019
  endloop
endfacet
facet normal -3.572961121450375e-17 -4.0462286804706414e-17 1.0
  outer loop
    vertex 108.82710145432883 138.1848346464415 1.5000000000000084
    vertex 83.2517665283233 136.38589117258164 1.500000000000019
    vertex 94.12710145432884 136.38589117258164 1.5000000000000167
  endloop
endfacet
facet normal -3.572961121450375e-17 -4.0462286804706414e-17 1.0
  outer loop
    vertex 108.82710145432883 138.1848346464415 1.5000000000000084
    vertex 94.12710145432884 136.38589117258164 1.5000000000000167
    vertex 107.12710145432882 136.38589117258164 1.5000000000000138
  endloop
endfacet
facet normal -3.572961121450375e-17 -4.0462286804706414e-17 1.0
  outer loop
    vertex 107.12710145432882 136.38589117258164 1.5000000000000138
    vertex 94.12710145432884 136.38589117258164 1.5000000000000167
    vertex 107.12710145432882 134.88589117258164 1.500000000000019
  endloop
endfacet
facet normal -3.572961121450375e-17 -4.0462286804706414e-17 1.0
  outer loop
    vertex 108.82710145432883 138.1848346464415 1.5000000000000084
    vertex 107.12710145432882 136.38589117258164 1.5000000000000138
    vertex 139.94483752427493 136.38589117258164 1.5000000000000204
  endloop
endfacet
facet normal -3.572961121450375e-17 -4.0462286804706414e-17 1.0
  outer loop
    vertex 108.82710145432883 138.1848346464415 1.5000000000000084
    vertex 139.94483752427493 136.38589117258164 1.5000000000000204
    vertex 123.67710145432892 139.58483464644155 1.5000000000000366
  endloop
endfacet
facet normal -3.572961121450375e-17 -4.0462286804706414e-17 1.0
  outer loop
    vertex 108.82710145432883 138.1848346464415 1.5000000000000084
    vertex 123.67710145432892 139.58483464644155 1.5000000000000366
    vertex 119.77998713729895 141.83483464644155 1.5000000000000366
  endloop
endfacet
facet normal -3.572961121450375e-17 -4.0462286804706414e-17 1.0
  outer loop
    vertex 108.82710145432883 138.1848346464415 1.5000000000000084
    vertex 119.77998713729895 141.83483464644155 1.5000000000000366
    vertex 108.82710145432883 176.94208078191753 1.500000000000017
  endloop
endfacet
facet normal -3.572961121450375e-17 -4.0462286804706414e-17 1.0
  outer loop
    vertex 108.82710145432883 176.94208078191753 1.500000000000017
    vertex 119.77998713729895 141.83483464644155 1.5000000000000366
    vertex 110.84668059638993 176.70458228276468 1.5000000000000184
  endloop
endfacet
facet normal -3.572961121450375e-17 -4.0462286804706414e-17 1.0
  outer loop
    vertex 123.67710145432892 139.58483464644155 1.5000000000000366
    vertex 139.94483752427493 136.38589117258164 1.5000000000000204
    vertex 127.5742157713589 141.83483464644155 1.5000000000000382
  endloop
endfacet
facet normal -3.572961121450375e-17 -4.0462286804706414e-17 1.0
  outer loop
    vertex 127.5742157713589 141.83483464644155 1.5000000000000382
    vertex 139.94483752427493 136.38589117258164 1.5000000000000204
    vertex 127.5742157713589 146.33483464644155 1.5000000000000395
  endloop
endfacet
facet normal -3.572961121450375e-17 -4.0462286804706414e-17 1.0
  outer loop
    vertex 127.5742157713589 146.33483464644155 1.5000000000000395
    vertex 139.94483752427493 136.38589117258164 1.5000000000000204
    vertex 128.3987634447969 164.57695427426657 1.5000000000000184
  endloop
endfacet
facet normal -3.572961121450375e-17 -4.0462286804706414e-17 1.0
  outer loop
    vertex 128.3987634447969 164.57695427426657 1.5000000000000184
    vertex 139.94483752427493 136.38589117258164 1.5000000000000204
    vertex 134.91181413099784 154.28865906887822 1.5000000000000184
  endloop
endfacet
facet normal -3.572961121450375e-17 -4.0462286804706414e-17 1.0
  outer loop
    vertex 134.91181413099784 154.28865906887822 1.5000000000000184
    vertex 139.94483752427493 136.38589117258164 1.5000000000000204
    vertex 139.22305672047779 142.039265805656 1.5000000000000184
  endloop
endfacet
facet normal -3.572961121450375e-17 -4.0462286804706414e-17 1.0
  outer loop
    vertex 139.22305672047779 142.039265805656 1.5000000000000184
    vertex 139.94483752427493 136.38589117258164 1.5000000000000204
    vertex 139.88401688500775 137.08483464644155 1.5000000000000213
  endloop
endfacet
facet normal -3.572961121450375e-17 -4.0462286804706414e-17 1.0
  outer loop
    vertex 110.84668059638993 176.70458228276468 1.5000000000000184
    vertex 119.77998713729895 146.33483464644155 1.5000000000000382
    vertex 120.17729647208272 172.20681589346302 1.5000000000000184
  endloop
endfacet
facet normal -3.572961121450375e-17 -4.0462286804706414e-17 1.0
  outer loop
    vertex 119.77998713729895 146.33483464644155 1.5000000000000382
    vertex 110.84668059638993 176.70458228276468 1.5000000000000184
    vertex 119.77998713729895 141.83483464644155 1.5000000000000366
  endloop
endfacet
facet normal -3.572961121450375e-17 -4.0462286804706414e-17 1.0
  outer loop
    vertex 120.17729647208272 172.20681589346302 1.5000000000000184
    vertex 119.77998713729895 146.33483464644155 1.5000000000000382
    vertex 123.67710145432892 148.58483464644155 1.5000000000000395
  endloop
endfacet
facet normal -3.572961121450375e-17 -4.0462286804706414e-17 1.0
  outer loop
    vertex 120.17729647208272 172.20681589346302 1.5000000000000184
    vertex 123.67710145432892 148.58483464644155 1.5000000000000395
    vertex 128.3987634447969 164.57695427426657 1.5000000000000184
  endloop
endfacet
facet normal -3.572961121450375e-17 -4.0462286804706414e-17 1.0
  outer loop
    vertex 128.3987634447969 164.57695427426657 1.5000000000000184
    vertex 123.67710145432892 148.58483464644155 1.5000000000000395
    vertex 127.5742157713589 146.33483464644155 1.5000000000000395
  endloop
endfacet
facet normal -3.572961121450375e-17 -4.0462286804706414e-17 1.0
  outer loop
    vertex 85.22351148402194 80.55099181226623 1.5000000000000142
    vertex 78.82710145432893 109.47654715947743 1.5000000000000142
    vertex 77.00204451130791 88.1808534314626 1.5000000000000142
  endloop
endfacet
facet normal -3.572961121450375e-17 -4.0462286804706414e-17 1.0
  outer loop
    vertex 78.82710145432893 109.47654715947743 1.5000000000000142
    vertex 85.22351148402194 80.55099181226623 1.5000000000000142
    vertex 82.82710145432893 109.47654715947743 1.5000000000000142
  endloop
endfacet
facet normal -3.572961121450375e-17 -4.0462286804706414e-17 1.0
  outer loop
    vertex 82.82710145432893 109.47654715947743 1.5000000000000142
    vertex 85.22351148402194 80.55099181226623 1.5000000000000142
    vertex 82.82710145432893 112.47654715947742 1.5000000000000142
  endloop
endfacet
facet normal -3.572961121450375e-17 -4.0462286804706414e-17 1.0
  outer loop
    vertex 82.82710145432893 112.47654715947742 1.5000000000000142
    vertex 85.22351148402194 80.55099181226623 1.5000000000000142
    vertex 84.05408926761723 114.78589117258164 1.5000000000000182
  endloop
endfacet
facet normal -3.572961121450375e-17 -4.0462286804706414e-17 1.0
  outer loop
    vertex 104.3741731380685 74.92270384466187 1.5000000000000142
    vertex 97.12710145432892 93.72220766053722 1.5000000000000142
    vertex 94.55367819127181 76.05344194186873 1.5000000000000142
  endloop
endfacet
facet normal -3.572961121450375e-17 -4.0462286804706414e-17 1.0
  outer loop
    vertex 97.12710145432892 93.72220766053722 1.5000000000000142
    vertex 104.3741731380685 74.92270384466187 1.5000000000000142
    vertex 111.12710145432894 93.72220766053722 1.5000000000000142
  endloop
endfacet
facet normal -3.572961121450375e-17 -4.0462286804706414e-17 1.0
  outer loop
    vertex 111.12710145432894 93.72220766053722 1.5000000000000142
    vertex 104.3741731380685 74.92270384466187 1.5000000000000142
    vertex 114.09577457137503 77.20821122168425 1.5000000000000142
  endloop
endfacet
facet normal -3.572961121450375e-17 -4.0462286804706414e-17 1.0
  outer loop
    vertex 111.12710145432894 93.72220766053722 1.5000000000000142
    vertex 114.09577457137503 77.20821122168425 1.5000000000000142
    vertex 111.12710145432894 99.72220766053722 1.5000000000000142
  endloop
endfacet
facet normal -3.572961121450375e-17 -4.0462286804706414e-17 1.0
  outer loop
    vertex 111.12710145432894 99.72220766053722 1.5000000000000142
    vertex 114.09577457137503 77.20821122168425 1.5000000000000142
    vertex 111.12710145432894 100.72220766053722 1.5000000000000142
  endloop
endfacet
facet normal -3.572961121450375e-17 -4.0462286804706414e-17 1.0
  outer loop
    vertex 85.22351148402194 80.55099181226623 1.5000000000000142
    vertex 94.05408926761721 114.78589117258164 1.5000000000000178
    vertex 94.05408926761721 116.28589117258163 1.5000000000000184
  endloop
endfacet
facet normal -3.572961121450375e-17 -4.0462286804706414e-17 1.0
  outer loop
    vertex 94.05408926761721 114.78589117258164 1.5000000000000178
    vertex 85.22351148402194 80.55099181226623 1.5000000000000142
    vertex 94.55367819127181 76.05344194186873 1.5000000000000142
  endloop
endfacet
facet normal -3.572961121450375e-17 -4.0462286804706414e-17 1.0
  outer loop
    vertex 94.05408926761721 114.78589117258164 1.5000000000000178
    vertex 94.55367819127181 76.05344194186873 1.5000000000000142
    vertex 97.12710145432892 100.72220766053722 1.5000000000000142
  endloop
endfacet
facet normal -3.572961121450375e-17 -4.0462286804706414e-17 1.0
  outer loop
    vertex 94.05408926761721 114.78589117258164 1.5000000000000178
    vertex 97.12710145432892 100.72220766053722 1.5000000000000142
    vertex 139.90597134441623 114.78589117258164 1.5000000000000164
  endloop
endfacet
facet normal -3.572961121450375e-17 -4.0462286804706414e-17 1.0
  outer loop
    vertex 97.12710145432892 100.72220766053722 1.5000000000000142
    vertex 94.55367819127181 76.05344194186873 1.5000000000000142
    vertex 97.12710145432892 93.72220766053722 1.5000000000000142
  endloop
endfacet
facet normal -3.572961121450375e-17 -4.0462286804706414e-17 1.0
  outer loop
    vertex 139.90597134441623 114.78589117258164 1.5000000000000164
    vertex 97.12710145432892 100.72220766053722 1.5000000000000142
    vertex 111.12710145432894 100.72220766053722 1.5000000000000142
  endloop
endfacet
facet normal -3.572961121450375e-17 -4.0462286804706414e-17 1.0
  outer loop
    vertex 139.90597134441623 114.78589117258164 1.5000000000000164
    vertex 111.12710145432894 100.72220766053722 1.5000000000000142
    vertex 114.09577457137503 77.20821122168425 1.5000000000000142
  endloop
endfacet
facet normal -3.572961121450375e-17 -4.0462286804706414e-17 1.0
  outer loop
    vertex 139.90597134441623 114.78589117258164 1.5000000000000164
    vertex 114.09577457137503 77.20821122168425 1.5000000000000142
    vertex 123.12023368493782 82.8054314232186 1.5000000000000142
  endloop
endfacet
facet normal -3.572961121450375e-17 -4.0462286804706414e-17 1.0
  outer loop
    vertex 139.90597134441623 114.78589117258164 1.5000000000000164
    vertex 123.12023368493782 82.8054314232186 1.5000000000000142
    vertex 130.82602295827314 91.40192805620192 1.5000000000000127
  endloop
endfacet
facet normal -3.572961121450375e-17 -4.0462286804706414e-17 1.0
  outer loop
    vertex 139.90597134441623 114.78589117258164 1.5000000000000164
    vertex 130.82602295827314 91.40192805620192 1.5000000000000127
    vertex 136.64042453192462 102.44273984206349 1.5000000000000127
  endloop
endfacet
facet normal -3.572961121450375e-17 -4.0462286804706414e-17 1.0
  outer loop
    vertex 139.90597134441623 114.78589117258164 1.5000000000000164
    vertex 136.64042453192462 102.44273984206349 1.5000000000000127
    vertex 139.84489148449114 114.15747679405136 1.5000000000000127
  endloop
endfacet
facet normal -3.572961121450375e-17 -4.0462286804706414e-17 1.0
  outer loop
    vertex 84.05408926761721 116.28589117258163 1.5000000000000184
    vertex 78.25176652832332 122.48589117258165 1.5000000000000184
    vertex 78.25176652832332 116.28589117258163 1.5000000000000182
  endloop
endfacet
facet normal -3.572961121450375e-17 -4.0462286804706414e-17 1.0
  outer loop
    vertex 78.25176652832332 122.48589117258165 1.5000000000000184
    vertex 84.05408926761721 116.28589117258163 1.5000000000000184
    vertex 78.25176652832332 128.58589117258163 1.5000000000000184
  endloop
endfacet
facet normal -3.572961121450375e-17 -4.0462286804706414e-17 1.0
  outer loop
    vertex 78.25176652832332 128.58589117258163 1.5000000000000184
    vertex 84.05408926761721 116.28589117258163 1.5000000000000184
    vertex 78.25176652832332 134.88589117258164 1.5000000000000189
  endloop
endfacet
facet normal -3.572961121450375e-17 -4.0462286804706414e-17 1.0
  outer loop
    vertex 78.25176652832332 134.88589117258164 1.5000000000000189
    vertex 84.05408926761721 116.28589117258163 1.5000000000000184
    vertex 80.25176652832332 134.88589117258164 1.5000000000000189
  endloop
endfacet
facet normal -3.572961121450375e-17 -4.0462286804706414e-17 1.0
  outer loop
    vertex 80.25176652832332 134.88589117258164 1.5000000000000189
    vertex 84.05408926761721 116.28589117258163 1.5000000000000184
    vertex 80.25176652832332 136.38589117258164 1.5000000000000195
  endloop
endfacet
facet normal -3.572961121450375e-17 -4.0462286804706414e-17 1.0
  outer loop
    vertex 80.25176652832332 136.38589117258164 1.5000000000000195
    vertex 84.05408926761721 116.28589117258163 1.5000000000000184
    vertex 83.2517665283233 134.88589117258164 1.500000000000019
  endloop
endfacet
facet normal -3.572961121450375e-17 -4.0462286804706414e-17 1.0
  outer loop
    vertex 83.2517665283233 134.88589117258164 1.500000000000019
    vertex 84.05408926761721 116.28589117258163 1.5000000000000184
    vertex 94.12710145432884 134.88589117258164 1.500000000000019
  endloop
endfacet
facet normal -3.572961121450375e-17 -4.0462286804706414e-17 1.0
  outer loop
    vertex 94.12710145432884 134.88589117258164 1.500000000000019
    vertex 84.05408926761721 116.28589117258163 1.5000000000000184
    vertex 84.05408926761723 114.78589117258164 1.5000000000000182
  endloop
endfacet
facet normal -3.572961121450375e-17 -4.0462286804706414e-17 1.0
  outer loop
    vertex 94.12710145432884 134.88589117258164 1.500000000000019
    vertex 84.05408926761723 114.78589117258164 1.5000000000000182
    vertex 85.22351148402194 80.55099181226623 1.5000000000000142
  endloop
endfacet
facet normal -3.572961121450375e-17 -4.0462286804706414e-17 1.0
  outer loop
    vertex 94.12710145432884 134.88589117258164 1.500000000000019
    vertex 85.22351148402194 80.55099181226623 1.5000000000000142
    vertex 94.05408926761721 116.28589117258163 1.5000000000000184
  endloop
endfacet
facet normal -3.572961121450375e-17 -4.0462286804706414e-17 1.0
  outer loop
    vertex 94.12710145432884 134.88589117258164 1.500000000000019
    vertex 94.05408926761721 116.28589117258163 1.5000000000000184
    vertex 140.05176652832333 116.28589117258163 1.5000000000000182
  endloop
endfacet
facet normal -3.572961121450375e-17 -4.0462286804706414e-17 1.0
  outer loop
    vertex 94.12710145432884 134.88589117258164 1.500000000000019
    vertex 140.05176652832333 116.28589117258163 1.5000000000000182
    vertex 94.12710145432884 136.38589117258164 1.5000000000000167
  endloop
endfacet
facet normal -3.572961121450375e-17 -4.0462286804706414e-17 1.0
  outer loop
    vertex 94.12710145432884 136.38589117258164 1.5000000000000167
    vertex 140.05176652832333 116.28589117258163 1.5000000000000182
    vertex 107.12710145432882 134.88589117258164 1.500000000000019
  endloop
endfacet
facet normal -3.572961121450375e-17 -4.0462286804706414e-17 1.0
  outer loop
    vertex 107.12710145432882 134.88589117258164 1.500000000000019
    vertex 140.05176652832333 116.28589117258163 1.5000000000000182
    vertex 140.07536447289493 134.88589117258164 1.5000000000000195
  endloop
endfacet
facet normal -3.572961121450375e-17 -4.0462286804706414e-17 1.0
  outer loop
    vertex 140.07536447289493 134.88589117258164 1.5000000000000195
    vertex 140.05176652832333 116.28589117258163 1.5000000000000182
    vertex 140.2771014543289 118.60422830794147 1.500000000000021
  endloop
endfacet
facet normal -3.572961121450375e-17 -4.0462286804706414e-17 1.0
  outer loop
    vertex 140.07536447289493 134.88589117258164 1.5000000000000195
    vertex 140.2771014543289 118.60422830794147 1.500000000000021
    vertex 140.2771014543289 132.5675540372218 1.5000000000000182
  endloop
endfacet
facet normal -3.572961121450375e-17 -4.0462286804706414e-17 1.0
  outer loop
    vertex 77.00204451130791 88.1808534314626 1.5000000000000142
    vertex 73.82710145432893 128.39085511864792 1.5000000000000142
    vertex 73.82710145432893 93.19613014345003 1.5000000000000142
  endloop
endfacet
facet normal -3.572961121450375e-17 -4.0462286804706414e-17 1.0
  outer loop
    vertex 73.82710145432893 128.39085511864792 1.5000000000000142
    vertex 77.00204451130791 88.1808534314626 1.5000000000000142
    vertex 75.32710145432888 128.39085511864792 1.5000000000000155
  endloop
endfacet
facet normal -3.572961121450375e-17 -4.0462286804706414e-17 1.0
  outer loop
    vertex 75.32710145432888 128.39085511864792 1.5000000000000155
    vertex 77.00204451130791 88.1808534314626 1.5000000000000142
    vertex 75.32710145432888 138.1848346464415 1.5000000000000155
  endloop
endfacet
facet normal -3.572961121450375e-17 -4.0462286804706414e-17 1.0
  outer loop
    vertex 75.32710145432888 138.1848346464415 1.5000000000000155
    vertex 77.00204451130791 88.1808534314626 1.5000000000000142
    vertex 76.37536447289494 114.78589117258164 1.5000000000000187
  endloop
endfacet
facet normal -3.572961121450375e-17 -4.0462286804706414e-17 1.0
  outer loop
    vertex 76.37536447289494 114.78589117258164 1.5000000000000187
    vertex 77.00204451130791 88.1808534314626 1.5000000000000142
    vertex 78.82710145432893 112.47654715947742 1.5000000000000142
  endloop
endfacet
facet normal -3.572961121450375e-17 -4.0462286804706414e-17 1.0
  outer loop
    vertex 76.37536447289494 114.78589117258164 1.5000000000000187
    vertex 78.82710145432893 112.47654715947742 1.5000000000000142
    vertex 84.05408926761723 114.78589117258164 1.5000000000000182
  endloop
endfacet
facet normal -3.572961121450375e-17 -4.0462286804706414e-17 1.0
  outer loop
    vertex 78.82710145432893 112.47654715947742 1.5000000000000142
    vertex 77.00204451130791 88.1808534314626 1.5000000000000142
    vertex 78.82710145432893 109.47654715947743 1.5000000000000142
  endloop
endfacet
facet normal -3.572961121450375e-17 -4.0462286804706414e-17 1.0
  outer loop
    vertex 84.05408926761723 114.78589117258164 1.5000000000000182
    vertex 78.82710145432893 112.47654715947742 1.5000000000000142
    vertex 82.82710145432893 112.47654715947742 1.5000000000000142
  endloop
endfacet
facet normal -3.572961121450375e-17 -4.0462286804706414e-17 1.0
  outer loop
    vertex 78.25176652832332 122.48589117258165 1.5000000000000184
    vertex 76.37536447289494 128.58589117258163 1.5000000000000193
    vertex 76.37536447289494 122.48589117258165 1.500000000000019
  endloop
endfacet
facet normal -3.572961121450375e-17 -4.0462286804706414e-17 1.0
  outer loop
    vertex 76.37536447289494 128.58589117258163 1.5000000000000193
    vertex 78.25176652832332 122.48589117258165 1.5000000000000184
    vertex 78.25176652832332 128.58589117258163 1.5000000000000184
  endloop
endfacet
facet normal 1.0 -0.0 -0.0
  outer loop
    vertex 94.12710145432884 136.38589117258164 1.5000000000000167
    vertex 94.12710145432884 134.88589117258164 6.5000000000000195
    vertex 94.12710145432884 134.88589117258164 1.500000000000019
  endloop
endfacet
facet normal 1.0 -0.0 -0.0
  outer loop
    vertex 94.12710145432884 134.88589117258164 6.5000000000000195
    vertex 94.12710145432884 136.38589117258164 1.5000000000000167
    vertex 94.12710145432884 136.38589117258164 6.5000000000000195
  endloop
endfacet
facet normal -1.0 0.0 0.0
  outer loop
    vertex 107.12710145432882 136.38589117258164 6.5000000000000195
    vertex 107.12710145432882 134.88589117258164 1.500000000000019
    vertex 107.12710145432882 134.88589117258164 6.5000000000000195
  endloop
endfacet
facet normal -1.0 0.0 0.0
  outer loop
    vertex 107.12710145432882 134.88589117258164 1.500000000000019
    vertex 107.12710145432882 136.38589117258164 6.5000000000000195
    vertex 107.12710145432882 136.38589117258164 1.5000000000000138
  endloop
endfacet
endsolid V3_Corner_control
