solid V3_Frame_CIS_26
facet normal -1.0 2.819966482547897e-16 -6.26659218343977e-16
  outer loop
    vertex 119.20184761129109 52.02082290570832 19.500000000000064
    vertex 119.20184761129109 12.020822905708318 1.500000000000055
    vertex 119.20184761129107 12.020822905708318 19.500000000000057
  endloop
endfacet
facet normal -1.0 2.819966482547897e-16 -6.26659218343977e-16
  outer loop
    vertex 119.20184761129109 12.020822905708318 1.500000000000055
    vertex 119.20184761129109 52.02082290570832 19.500000000000064
    vertex 119.20184761129109 52.02082290570832 1.5000000000000546
  endloop
endfacet
facet normal 1.0 -0.0 -0.0
  outer loop
    vertex 123.20184761129109 132.02082290570831 1.5000000000000564
    vertex 123.20184761129109 92.02082290570831 19.500000000000064
    vertex 123.20184761129109 92.02082290570831 1.5000000000000564
  endloop
endfacet
facet normal 1.0 -0.0 -0.0
  outer loop
    vertex 123.20184761129109 92.02082290570831 19.500000000000064
    vertex 123.20184761129109 132.02082290570831 1.5000000000000564
    vertex 123.20184761129109 132.02082290570831 19.500000000000057
  endloop
endfacet
facet normal -1.4099832412739387e-16 -2.7115062332191084e-18 1.0
  outer loop
    vertex 144.70184761129107 12.020822905708318 1.5000000000000664
    vertex 137.20184761129104 142.02082290570834 1.5000000000000657
    vertex 137.20184761129104 12.020822905708318 1.5000000000000642
  endloop
endfacet
facet normal -1.4099832412739387e-16 -2.7115062332191084e-18 1.0
  outer loop
    vertex 137.20184761129104 142.02082290570834 1.5000000000000657
    vertex 144.70184761129107 12.020822905708318 1.5000000000000664
    vertex 144.7018476112911 142.0208229057083 1.5000000000000657
  endloop
endfacet
facet normal 0.0 -1.0 0.0
  outer loop
    vertex 134.20184761129104 132.02082290570831 1.5000000000000628
    vertex 123.20184761129109 132.02082290570831 19.500000000000057
    vertex 123.20184761129109 132.02082290570831 1.5000000000000564
  endloop
endfacet
facet normal 0.0 -1.0 0.0
  outer loop
    vertex 123.20184761129109 132.02082290570831 19.500000000000057
    vertex 134.20184761129104 132.02082290570831 1.5000000000000628
    vertex 134.20184761129104 132.02082290570831 4.500000000000063
  endloop
endfacet
facet normal 0.0 -1.0 0.0
  outer loop
    vertex 123.20184761129109 132.02082290570831 19.500000000000057
    vertex 134.20184761129104 132.02082290570831 4.500000000000063
    vertex 137.20184761129104 132.02082290570831 4.500000000000065
  endloop
endfacet
facet normal 0.0 -1.0 0.0
  outer loop
    vertex 123.20184761129109 132.02082290570831 19.500000000000057
    vertex 137.20184761129104 132.02082290570831 4.500000000000065
    vertex 137.20184761129104 132.02082290570831 19.500000000000057
  endloop
endfacet
facet normal -6.38953475430449e-15 1.0 -6.53687769982815e-16
  outer loop
    vertex 108.70184761129111 142.0208229057083 5.4989346409684e-14
    vertex 110.2018476112911 142.0208229057083 1.500000000000055
    vertex 126.40184761129095 142.02082290570837 5.780931289223189e-14
  endloop
endfacet
facet normal -6.38953475430449e-15 1.0 -6.53687769982815e-16
  outer loop
    vertex 110.2018476112911 142.0208229057083 1.500000000000055
    vertex 108.70184761129111 142.0208229057083 5.4989346409684e-14
    vertex 108.70184761129111 142.0208229057083 11.500000000000053
  endloop
endfacet
facet normal -6.38953475430449e-15 1.0 -6.53687769982815e-16
  outer loop
    vertex 126.40184761129095 142.02082290570837 5.780931289223189e-14
    vertex 110.2018476112911 142.0208229057083 1.500000000000055
    vertex 119.20184761129109 142.02082290570834 1.5000000000000537
  endloop
endfacet
facet normal -6.38953475430449e-15 1.0 -6.53687769982815e-16
  outer loop
    vertex 110.2018476112911 142.0208229057083 1.500000000000055
    vertex 108.70184761129111 142.0208229057083 11.500000000000053
    vertex 110.2018476112911 142.0208229057083 11.500000000000053
  endloop
endfacet
facet normal -6.38953475430449e-15 1.0 -6.53687769982815e-16
  outer loop
    vertex 119.20184761129109 142.02082290570834 1.5000000000000537
    vertex 126.40184761129099 142.02082290570843 19.500000000000057
    vertex 126.40184761129095 142.02082290570837 5.780931289223189e-14
  endloop
endfacet
facet normal -6.38953475430449e-15 1.0 -6.53687769982815e-16
  outer loop
    vertex 126.40184761129099 142.02082290570843 19.500000000000057
    vertex 119.20184761129109 142.02082290570834 1.5000000000000537
    vertex 119.20184761129109 142.02082290570834 19.500000000000068
  endloop
endfacet
facet normal -1.0 0.0 0.0
  outer loop
    vertex 119.20184761129109 142.02082290570834 19.500000000000068
    vertex 119.20184761129109 92.02082290570831 1.500000000000054
    vertex 119.20184761129109 92.02082290570831 19.500000000000068
  endloop
endfacet
facet normal -1.0 0.0 0.0
  outer loop
    vertex 119.20184761129109 92.02082290570831 1.500000000000054
    vertex 119.20184761129109 142.02082290570834 19.500000000000068
    vertex 119.20184761129109 142.02082290570834 1.5000000000000537
  endloop
endfacet
facet normal 5.453349880209459e-16 1.0 -1.7073771622627294e-15
  outer loop
    vertex 130.0018476112911 142.0208229057083 4.934941344458821e-14
    vertex 137.20184761129104 142.02082290570834 1.5000000000000657
    vertex 144.7018476112911 142.0208229057083 6.626921233987559e-14
  endloop
endfacet
facet normal 5.453349880209459e-16 1.0 -1.7073771622627294e-15
  outer loop
    vertex 137.20184761129104 142.02082290570834 1.5000000000000657
    vertex 130.0018476112911 142.0208229057083 4.934941344458821e-14
    vertex 130.00184761129108 142.02082290570834 19.500000000000068
  endloop
endfacet
facet normal 5.453349880209459e-16 1.0 -1.7073771622627294e-15
  outer loop
    vertex 137.20184761129104 142.02082290570834 1.5000000000000657
    vertex 130.00184761129108 142.02082290570834 19.500000000000068
    vertex 137.20184761129104 142.02082290570834 19.500000000000046
  endloop
endfacet
facet normal 5.453349880209459e-16 1.0 -1.7073771622627294e-15
  outer loop
    vertex 144.7018476112911 142.0208229057083 1.5000000000000657
    vertex 144.7018476112911 142.0208229057083 6.626921233987559e-14
    vertex 137.20184761129104 142.02082290570834 1.5000000000000657
  endloop
endfacet
facet normal 1.0 -0.0 -0.0
  outer loop
    vertex 137.20184761129104 142.02082290570834 1.5000000000000657
    vertex 137.20184761129104 12.020822905708318 4.500000000000065
    vertex 137.20184761129104 12.020822905708318 1.5000000000000642
  endloop
endfacet
facet normal 1.0 -0.0 -0.0
  outer loop
    vertex 137.20184761129104 12.020822905708318 4.500000000000065
    vertex 137.20184761129104 142.02082290570834 1.5000000000000657
    vertex 137.20184761129104 132.02082290570831 4.500000000000065
  endloop
endfacet
facet normal 1.0 -0.0 -0.0
  outer loop
    vertex 137.20184761129104 132.02082290570831 4.500000000000065
    vertex 137.20184761129104 142.02082290570834 1.5000000000000657
    vertex 137.20184761129104 132.02082290570831 19.500000000000057
  endloop
endfacet
facet normal 1.0 -0.0 -0.0
  outer loop
    vertex 137.20184761129104 132.02082290570831 19.500000000000057
    vertex 137.20184761129104 142.02082290570834 1.5000000000000657
    vertex 137.20184761129104 142.02082290570834 19.500000000000046
  endloop
endfacet
facet normal 3.5249581031848595e-16 -1.0574874309554624e-16 1.0
  outer loop
    vertex 123.20184761129109 12.020822905708318 19.500000000000057
    vertex 119.20184761129109 52.02082290570832 19.500000000000064
    vertex 119.20184761129107 12.020822905708318 19.500000000000057
  endloop
endfacet
facet normal 3.5249581031848595e-16 -1.0574874309554624e-16 1.0
  outer loop
    vertex 119.20184761129109 52.02082290570832 19.500000000000064
    vertex 123.20184761129109 12.020822905708318 19.500000000000057
    vertex 123.20184761129109 52.02082290570832 19.50000000000006
  endloop
endfacet
facet normal 1.0 -0.0 -0.0
  outer loop
    vertex 123.20184761129109 52.02082290570832 1.5000000000000564
    vertex 123.20184761129109 12.020822905708318 19.500000000000057
    vertex 123.20184761129109 12.020822905708318 1.5000000000000564
  endloop
endfacet
facet normal 1.0 -0.0 -0.0
  outer loop
    vertex 123.20184761129109 12.020822905708318 19.500000000000057
    vertex 123.20184761129109 52.02082290570832 1.5000000000000564
    vertex 123.20184761129109 52.02082290570832 19.50000000000006
  endloop
endfacet
facet normal -0.0 1.0 -0.0
  outer loop
    vertex 119.20184761129109 52.02082290570832 19.500000000000064
    vertex 123.20184761129109 52.02082290570832 1.5000000000000564
    vertex 119.20184761129109 52.02082290570832 1.5000000000000546
  endloop
endfacet
facet normal -0.0 1.0 -0.0
  outer loop
    vertex 123.20184761129109 52.02082290570832 1.5000000000000564
    vertex 119.20184761129109 52.02082290570832 19.500000000000064
    vertex 123.20184761129109 52.02082290570832 19.50000000000006
  endloop
endfacet
facet normal 0.0 -1.0 0.0
  outer loop
    vertex 123.20184761129109 92.02082290570831 1.5000000000000564
    vertex 119.20184761129109 92.02082290570831 19.500000000000068
    vertex 119.20184761129109 92.02082290570831 1.500000000000054
  endloop
endfacet
facet normal 0.0 -1.0 0.0
  outer loop
    vertex 119.20184761129109 92.02082290570831 19.500000000000068
    vertex 123.20184761129109 92.02082290570831 1.5000000000000564
    vertex 123.20184761129109 92.02082290570831 19.500000000000064
  endloop
endfacet
facet normal -2.6442681635258606e-16 -1.6897596336279542e-18 1.0
  outer loop
    vertex 123.20184761129109 52.02082290570832 1.5000000000000564
    vertex 119.20184761129109 92.02082290570831 1.500000000000054
    vertex 119.20184761129109 52.02082290570832 1.5000000000000546
  endloop
endfacet
facet normal -2.6442681635258606e-16 -1.6897596336279542e-18 1.0
  outer loop
    vertex 119.20184761129109 92.02082290570831 1.500000000000054
    vertex 123.20184761129109 52.02082290570832 1.5000000000000564
    vertex 123.20184761129109 92.02082290570831 1.5000000000000564
  endloop
endfacet
facet normal -2.6442681635258606e-16 -1.6897596336279542e-18 1.0
  outer loop
    vertex 119.20184761129109 12.020822905708318 1.500000000000055
    vertex 110.2018476112911 142.0208229057083 1.500000000000055
    vertex 110.2018476112911 12.020822905708318 1.500000000000055
  endloop
endfacet
facet normal -2.6442681635258606e-16 -1.6897596336279542e-18 1.0
  outer loop
    vertex 110.2018476112911 142.0208229057083 1.500000000000055
    vertex 119.20184761129109 12.020822905708318 1.500000000000055
    vertex 119.20184761129109 142.02082290570834 1.5000000000000537
  endloop
endfacet
facet normal -2.6442681635258606e-16 -1.6897596336279542e-18 1.0
  outer loop
    vertex 119.20184761129109 142.02082290570834 1.5000000000000537
    vertex 119.20184761129109 12.020822905708318 1.500000000000055
    vertex 119.20184761129109 52.02082290570832 1.5000000000000546
  endloop
endfacet
facet normal -2.6442681635258606e-16 -1.6897596336279542e-18 1.0
  outer loop
    vertex 119.20184761129109 142.02082290570834 1.5000000000000537
    vertex 119.20184761129109 52.02082290570832 1.5000000000000546
    vertex 119.20184761129109 92.02082290570831 1.500000000000054
  endloop
endfacet
facet normal -2.6442681635258606e-16 -1.6897596336279542e-18 1.0
  outer loop
    vertex 123.20184761129109 12.020822905708318 1.5000000000000564
    vertex 124.48514183247472 20.020822905708304 1.5000000000000564
    vertex 123.20184761129109 52.02082290570832 1.5000000000000564
  endloop
endfacet
facet normal -2.6442681635258606e-16 -1.6897596336279542e-18 1.0
  outer loop
    vertex 124.48514183247472 20.020822905708304 1.5000000000000564
    vertex 123.20184761129109 12.020822905708318 1.5000000000000564
    vertex 126.48514183247477 12.020822905708318 1.5000000000000586
  endloop
endfacet
facet normal -2.6442681635258606e-16 -1.6897596336279542e-18 1.0
  outer loop
    vertex 123.20184761129109 52.02082290570832 1.5000000000000564
    vertex 124.48514183247472 20.020822905708304 1.5000000000000564
    vertex 123.20184761129109 92.02082290570831 1.5000000000000564
  endloop
endfacet
facet normal -2.6442681635258606e-16 -1.6897596336279542e-18 1.0
  outer loop
    vertex 123.20184761129109 92.02082290570831 1.5000000000000564
    vertex 124.48514183247472 20.020822905708304 1.5000000000000564
    vertex 123.20184761129109 132.02082290570831 1.5000000000000564
  endloop
endfacet
facet normal -2.6442681635258606e-16 -1.6897596336279542e-18 1.0
  outer loop
    vertex 134.20184761129104 12.020822905708318 1.5000000000000628
    vertex 132.48514183247474 20.020822905708304 1.5000000000000586
    vertex 130.48514183247477 12.020822905708318 1.5000000000000564
  endloop
endfacet
facet normal -2.6442681635258606e-16 -1.6897596336279542e-18 1.0
  outer loop
    vertex 124.48514183247472 20.020822905708304 1.5000000000000564
    vertex 134.20184761129104 132.02082290570831 1.5000000000000628
    vertex 123.20184761129109 132.02082290570831 1.5000000000000564
  endloop
endfacet
facet normal -2.6442681635258606e-16 -1.6897596336279542e-18 1.0
  outer loop
    vertex 134.20184761129104 132.02082290570831 1.5000000000000628
    vertex 124.48514183247472 20.020822905708304 1.5000000000000564
    vertex 132.48514183247474 20.020822905708304 1.5000000000000586
  endloop
endfacet
facet normal -2.6442681635258606e-16 -1.6897596336279542e-18 1.0
  outer loop
    vertex 134.20184761129104 132.02082290570831 1.5000000000000628
    vertex 132.48514183247474 20.020822905708304 1.5000000000000586
    vertex 134.20184761129104 12.020822905708318 1.5000000000000628
  endloop
endfacet
facet normal 0.0 -1.0 0.0
  outer loop
    vertex 108.70184761129111 12.020822905708318 5.4989346409684e-14
    vertex 110.2018476112911 12.020822905708318 1.500000000000055
    vertex 108.70184761129111 12.020822905708318 11.500000000000055
  endloop
endfacet
facet normal 0.0 -1.0 0.0
  outer loop
    vertex 110.2018476112911 12.020822905708318 1.500000000000055
    vertex 108.70184761129111 12.020822905708318 5.4989346409684e-14
    vertex 126.48514183247477 12.020822905708318 5.851430451286887e-14
  endloop
endfacet
facet normal 0.0 -1.0 0.0
  outer loop
    vertex 110.2018476112911 12.020822905708318 1.500000000000055
    vertex 126.48514183247477 12.020822905708318 5.851430451286887e-14
    vertex 119.20184761129109 12.020822905708318 1.500000000000055
  endloop
endfacet
facet normal 0.0 -1.0 0.0
  outer loop
    vertex 108.70184761129111 12.020822905708318 11.500000000000055
    vertex 110.2018476112911 12.020822905708318 1.500000000000055
    vertex 110.2018476112911 12.020822905708318 11.500000000000055
  endloop
endfacet
facet normal 0.0 -1.0 0.0
  outer loop
    vertex 126.48514183247477 12.020822905708318 5.851430451286887e-14
    vertex 123.20184761129109 12.020822905708318 1.5000000000000564
    vertex 119.20184761129109 12.020822905708318 1.500000000000055
  endloop
endfacet
facet normal 0.0 -1.0 0.0
  outer loop
    vertex 123.20184761129109 12.020822905708318 1.5000000000000564
    vertex 126.48514183247477 12.020822905708318 5.851430451286887e-14
    vertex 126.48514183247477 12.020822905708318 1.5000000000000586
  endloop
endfacet
facet normal 0.0 -1.0 0.0
  outer loop
    vertex 123.20184761129109 12.020822905708318 1.5000000000000564
    vertex 119.20184761129107 12.020822905708318 19.500000000000057
    vertex 119.20184761129109 12.020822905708318 1.500000000000055
  endloop
endfacet
facet normal 0.0 -1.0 0.0
  outer loop
    vertex 119.20184761129107 12.020822905708318 19.500000000000057
    vertex 123.20184761129109 12.020822905708318 1.5000000000000564
    vertex 123.20184761129109 12.020822905708318 19.500000000000057
  endloop
endfacet
facet normal 0.9701425001453307 0.24253562503633816 -1.9874499898737484e-28
  outer loop
    vertex 124.48514183247472 20.020822905708304 8.107403637325206e-14
    vertex 126.48514183247477 12.020822905708318 1.5000000000000586
    vertex 126.48514183247477 12.020822905708318 5.851430451286887e-14
  endloop
endfacet
facet normal 0.9701425001453307 0.24253562503633816 -1.9874499898737484e-28
  outer loop
    vertex 126.48514183247477 12.020822905708318 1.5000000000000586
    vertex 124.48514183247472 20.020822905708304 8.107403637325206e-14
    vertex 124.48514183247472 20.020822905708304 1.5000000000000564
  endloop
endfacet
facet normal 0.0 -1.0 0.0
  outer loop
    vertex 132.48514183247474 20.020822905708304 1.5000000000000586
    vertex 124.48514183247472 20.020822905708304 8.107403637325206e-14
    vertex 132.48514183247474 20.020822905708304 4.7234438582677284e-14
  endloop
endfacet
facet normal 0.0 -1.0 0.0
  outer loop
    vertex 124.48514183247472 20.020822905708304 8.107403637325206e-14
    vertex 132.48514183247474 20.020822905708304 1.5000000000000586
    vertex 124.48514183247472 20.020822905708304 1.5000000000000564
  endloop
endfacet
facet normal -0.9701425001453319 0.24253562503633297 0.0
  outer loop
    vertex 132.48514183247474 20.020822905708304 1.5000000000000586
    vertex 130.48514183247477 12.020822905708318 9.235390230344364e-14
    vertex 130.48514183247477 12.020822905708318 1.5000000000000564
  endloop
endfacet
facet normal -0.9701425001453319 0.24253562503633297 0.0
  outer loop
    vertex 130.48514183247477 12.020822905708318 9.235390230344364e-14
    vertex 132.48514183247474 20.020822905708304 1.5000000000000586
    vertex 132.48514183247474 20.020822905708304 4.7234438582677284e-14
  endloop
endfacet
facet normal 0.0 -1.0 0.0
  outer loop
    vertex 144.70184761129107 12.020822905708318 1.5000000000000664
    vertex 130.48514183247477 12.020822905708318 9.235390230344364e-14
    vertex 144.70184761129107 12.020822905708318 6.485922909860164e-14
  endloop
endfacet
facet normal 0.0 -1.0 0.0
  outer loop
    vertex 130.48514183247477 12.020822905708318 9.235390230344364e-14
    vertex 144.70184761129107 12.020822905708318 1.5000000000000664
    vertex 130.48514183247477 12.020822905708318 1.5000000000000564
  endloop
endfacet
facet normal 0.0 -1.0 0.0
  outer loop
    vertex 130.48514183247477 12.020822905708318 1.5000000000000564
    vertex 144.70184761129107 12.020822905708318 1.5000000000000664
    vertex 134.20184761129104 12.020822905708318 1.5000000000000628
  endloop
endfacet
facet normal 0.0 -1.0 0.0
  outer loop
    vertex 134.20184761129104 12.020822905708318 1.5000000000000628
    vertex 144.70184761129107 12.020822905708318 1.5000000000000664
    vertex 137.20184761129104 12.020822905708318 1.5000000000000642
  endloop
endfacet
facet normal 0.0 -1.0 0.0
  outer loop
    vertex 137.20184761129104 12.020822905708318 1.5000000000000642
    vertex 134.20184761129104 12.020822905708318 4.500000000000063
    vertex 134.20184761129104 12.020822905708318 1.5000000000000628
  endloop
endfacet
facet normal 0.0 -1.0 0.0
  outer loop
    vertex 134.20184761129104 12.020822905708318 4.500000000000063
    vertex 137.20184761129104 12.020822905708318 1.5000000000000642
    vertex 137.20184761129104 12.020822905708318 4.500000000000065
  endloop
endfacet
facet normal -7.049916206369704e-16 -5.522368724092875e-34 1.0
  outer loop
    vertex 137.20184761129104 12.020822905708318 4.500000000000065
    vertex 134.20184761129104 132.02082290570831 4.500000000000063
    vertex 134.20184761129104 12.020822905708318 4.500000000000063
  endloop
endfacet
facet normal -7.049916206369704e-16 -5.522368724092875e-34 1.0
  outer loop
    vertex 134.20184761129104 132.02082290570831 4.500000000000063
    vertex 137.20184761129104 12.020822905708318 4.500000000000065
    vertex 137.20184761129104 132.02082290570831 4.500000000000065
  endloop
endfacet
facet normal -1.0 0.0 0.0
  outer loop
    vertex 134.20184761129104 132.02082290570831 4.500000000000063
    vertex 134.20184761129104 12.020822905708318 1.5000000000000628
    vertex 134.20184761129104 12.020822905708318 4.500000000000063
  endloop
endfacet
facet normal -1.0 0.0 0.0
  outer loop
    vertex 134.20184761129104 12.020822905708318 1.5000000000000628
    vertex 134.20184761129104 132.02082290570831 4.500000000000063
    vertex 134.20184761129104 132.02082290570831 1.5000000000000628
  endloop
endfacet
facet normal -1.0 0.0 0.0
  outer loop
    vertex 108.70184761129111 142.0208229057083 11.500000000000053
    vertex 108.70184761129111 12.020822905708318 5.4989346409684e-14
    vertex 108.70184761129111 12.020822905708318 11.500000000000055
  endloop
endfacet
facet normal -1.0 0.0 0.0
  outer loop
    vertex 108.70184761129111 12.020822905708318 5.4989346409684e-14
    vertex 108.70184761129111 142.0208229057083 11.500000000000053
    vertex 108.70184761129111 142.0208229057083 5.4989346409684e-14
  endloop
endfacet
facet normal 1.0 -2.603045983890367e-16 9.134847464837732e-31
  outer loop
    vertex 144.7018476112911 142.0208229057083 6.626921233987559e-14
    vertex 144.70184761129107 12.020822905708318 1.5000000000000664
    vertex 144.70184761129107 12.020822905708318 6.485922909860164e-14
  endloop
endfacet
facet normal 1.0 -2.603045983890367e-16 9.134847464837732e-31
  outer loop
    vertex 144.70184761129107 12.020822905708318 1.5000000000000664
    vertex 144.7018476112911 142.0208229057083 6.626921233987559e-14
    vertex 144.7018476112911 142.0208229057083 1.5000000000000657
  endloop
endfacet
facet normal 5.677257201327562e-16 1.9951748454555064e-17 1.0
  outer loop
    vertex 128.20184761129102 148.82082290570838 19.500000000000057
    vertex 124.65184761129102 148.82082290570838 19.500000000000057
    vertex 126.40184761129099 142.02082290570843 19.500000000000057
  endloop
endfacet
facet normal 5.677257201327562e-16 1.9951748454555064e-17 1.0
  outer loop
    vertex 123.20184761129109 92.02082290570831 19.500000000000064
    vertex 119.20184761129109 142.02082290570834 19.500000000000068
    vertex 119.20184761129109 92.02082290570831 19.500000000000068
  endloop
endfacet
facet normal 5.677257201327562e-16 1.9951748454555064e-17 1.0
  outer loop
    vertex 119.20184761129109 142.02082290570834 19.500000000000068
    vertex 123.20184761129109 92.02082290570831 19.500000000000064
    vertex 123.20184761129109 132.02082290570831 19.500000000000057
  endloop
endfacet
facet normal 5.677257201327562e-16 1.9951748454555064e-17 1.0
  outer loop
    vertex 119.20184761129109 142.02082290570834 19.500000000000068
    vertex 123.20184761129109 132.02082290570831 19.500000000000057
    vertex 126.40184761129099 142.02082290570843 19.500000000000057
  endloop
endfacet
facet normal 5.677257201327562e-16 1.9951748454555064e-17 1.0
  outer loop
    vertex 126.40184761129099 142.02082290570843 19.500000000000057
    vertex 123.20184761129109 132.02082290570831 19.500000000000057
    vertex 137.20184761129104 132.02082290570831 19.500000000000057
  endloop
endfacet
facet normal 5.677257201327562e-16 1.9951748454555064e-17 1.0
  outer loop
    vertex 126.40184761129099 142.02082290570843 19.500000000000057
    vertex 137.20184761129104 132.02082290570831 19.500000000000057
    vertex 130.00184761129108 142.02082290570834 19.500000000000068
  endloop
endfacet
facet normal 5.677257201327562e-16 1.9951748454555064e-17 1.0
  outer loop
    vertex 126.40184761129099 142.02082290570843 19.500000000000057
    vertex 130.00184761129108 142.02082290570834 19.500000000000068
    vertex 128.20184761129102 148.82082290570838 19.500000000000057
  endloop
endfacet
facet normal 5.677257201327562e-16 1.9951748454555064e-17 1.0
  outer loop
    vertex 130.00184761129108 142.02082290570834 19.500000000000068
    vertex 137.20184761129104 132.02082290570831 19.500000000000057
    vertex 137.20184761129104 142.02082290570834 19.500000000000046
  endloop
endfacet
facet normal 5.677257201327562e-16 1.9951748454555064e-17 1.0
  outer loop
    vertex 131.75184761129105 148.82082290570835 19.500000000000068
    vertex 128.20184761129102 148.82082290570838 19.500000000000057
    vertex 130.00184761129108 142.02082290570834 19.500000000000068
  endloop
endfacet
facet normal 3.076809150219395e-16 -5.674004424883819e-17 -1.0
  outer loop
    vertex 131.75184761129105 148.82082290570835 6.697420396051257e-14
    vertex 126.40184761129095 142.02082290570837 5.780931289223189e-14
    vertex 124.65184761129102 148.82082290570838 5.780931289223189e-14
  endloop
endfacet
facet normal 3.076809150219395e-16 -5.674004424883819e-17 -1.0
  outer loop
    vertex 126.40184761129095 142.02082290570837 5.780931289223189e-14
    vertex 131.75184761129105 148.82082290570835 6.697420396051257e-14
    vertex 130.0018476112911 142.0208229057083 4.934941344458821e-14
  endloop
endfacet
facet normal 3.076809150219395e-16 -5.674004424883819e-17 -1.0
  outer loop
    vertex 126.40184761129095 142.02082290570837 5.780931289223189e-14
    vertex 108.70184761129111 12.020822905708318 5.4989346409684e-14
    vertex 108.70184761129111 142.0208229057083 5.4989346409684e-14
  endloop
endfacet
facet normal 3.076809150219395e-16 -5.674004424883819e-17 -1.0
  outer loop
    vertex 108.70184761129111 12.020822905708318 5.4989346409684e-14
    vertex 126.40184761129095 142.02082290570837 5.780931289223189e-14
    vertex 124.48514183247472 20.020822905708304 8.107403637325206e-14
  endloop
endfacet
facet normal 3.076809150219395e-16 -5.674004424883819e-17 -1.0
  outer loop
    vertex 124.48514183247472 20.020822905708304 8.107403637325206e-14
    vertex 126.40184761129095 142.02082290570837 5.780931289223189e-14
    vertex 132.48514183247474 20.020822905708304 4.7234438582677284e-14
  endloop
endfacet
facet normal 3.076809150219395e-16 -5.674004424883819e-17 -1.0
  outer loop
    vertex 132.48514183247474 20.020822905708304 4.7234438582677284e-14
    vertex 126.40184761129095 142.02082290570837 5.780931289223189e-14
    vertex 130.0018476112911 142.0208229057083 4.934941344458821e-14
  endloop
endfacet
facet normal 3.076809150219395e-16 -5.674004424883819e-17 -1.0
  outer loop
    vertex 132.48514183247474 20.020822905708304 4.7234438582677284e-14
    vertex 130.0018476112911 142.0208229057083 4.934941344458821e-14
    vertex 144.7018476112911 142.0208229057083 6.626921233987559e-14
  endloop
endfacet
facet normal 3.076809150219395e-16 -5.674004424883819e-17 -1.0
  outer loop
    vertex 132.48514183247474 20.020822905708304 4.7234438582677284e-14
    vertex 144.7018476112911 142.0208229057083 6.626921233987559e-14
    vertex 144.70184761129107 12.020822905708318 6.485922909860164e-14
  endloop
endfacet
facet normal 3.076809150219395e-16 -5.674004424883819e-17 -1.0
  outer loop
    vertex 144.70184761129107 12.020822905708318 6.485922909860164e-14
    vertex 130.48514183247477 12.020822905708318 9.235390230344364e-14
    vertex 132.48514183247474 20.020822905708304 4.7234438582677284e-14
  endloop
endfacet
facet normal 3.076809150219395e-16 -5.674004424883819e-17 -1.0
  outer loop
    vertex 126.48514183247477 12.020822905708318 5.851430451286887e-14
    vertex 108.70184761129111 12.020822905708318 5.4989346409684e-14
    vertex 124.48514183247472 20.020822905708304 8.107403637325206e-14
  endloop
endfacet
facet normal -1.2089888456797013e-16 1.0945666870707278e-17 1.0
  outer loop
    vertex 110.2018476112911 12.020822905708318 11.500000000000055
    vertex 108.70184761129111 142.0208229057083 11.500000000000053
    vertex 108.70184761129111 12.020822905708318 11.500000000000055
  endloop
endfacet
facet normal -1.2089888456797013e-16 1.0945666870707278e-17 1.0
  outer loop
    vertex 108.70184761129111 142.0208229057083 11.500000000000053
    vertex 110.2018476112911 12.020822905708318 11.500000000000055
    vertex 110.2018476112911 142.0208229057083 11.500000000000053
  endloop
endfacet
facet normal -0.9684438416701532 -0.24923187101804506 1.455401919534942e-15
  outer loop
    vertex 126.40184761129099 142.02082290570843 19.500000000000057
    vertex 124.65184761129102 148.82082290570838 5.780931289223189e-14
    vertex 126.40184761129095 142.02082290570837 5.780931289223189e-14
  endloop
endfacet
facet normal -0.9684438416701532 -0.24923187101804506 1.455401919534942e-15
  outer loop
    vertex 124.65184761129102 148.82082290570838 5.780931289223189e-14
    vertex 126.40184761129099 142.02082290570843 19.500000000000057
    vertex 124.65184761129102 148.82082290570838 19.500000000000057
  endloop
endfacet
facet normal 0.9684438416701527 -0.24923187101804653 1.4601348117524946e-15
  outer loop
    vertex 131.75184761129105 148.82082290570835 6.697420396051257e-14
    vertex 130.00184761129108 142.02082290570834 19.500000000000068
    vertex 130.0018476112911 142.0208229057083 4.934941344458821e-14
  endloop
endfacet
facet normal 0.9684438416701527 -0.24923187101804653 1.4601348117524946e-15
  outer loop
    vertex 130.00184761129108 142.02082290570834 19.500000000000068
    vertex 131.75184761129105 148.82082290570835 6.697420396051257e-14
    vertex 131.75184761129105 148.82082290570835 19.500000000000068
  endloop
endfacet
facet normal 6.354854045178335e-15 1.0 -3.856364420578307e-16
  outer loop
    vertex 124.65184761129102 148.82082290570838 19.500000000000057
    vertex 131.75184761129105 148.82082290570835 6.697420396051257e-14
    vertex 124.65184761129102 148.82082290570838 5.780931289223189e-14
  endloop
endfacet
facet normal 6.354854045178335e-15 1.0 -3.856364420578307e-16
  outer loop
    vertex 131.75184761129105 148.82082290570835 6.697420396051257e-14
    vertex 124.65184761129102 148.82082290570838 19.500000000000057
    vertex 128.20184761129102 148.82082290570838 19.500000000000057
  endloop
endfacet
facet normal 6.354854045178335e-15 1.0 -3.856364420578307e-16
  outer loop
    vertex 131.75184761129105 148.82082290570835 6.697420396051257e-14
    vertex 128.20184761129102 148.82082290570838 19.500000000000057
    vertex 131.75184761129105 148.82082290570835 19.500000000000068
  endloop
endfacet
facet normal 1.0 -0.0 -0.0
  outer loop
    vertex 110.2018476112911 142.0208229057083 1.500000000000055
    vertex 110.2018476112911 12.020822905708318 11.500000000000055
    vertex 110.2018476112911 12.020822905708318 1.500000000000055
  endloop
endfacet
facet normal 1.0 -0.0 -0.0
  outer loop
    vertex 110.2018476112911 12.020822905708318 11.500000000000055
    vertex 110.2018476112911 142.0208229057083 1.500000000000055
    vertex 110.2018476112911 142.0208229057083 11.500000000000053
  endloop
endfacet
endsolid V3_Frame_CIS_26
