solid V3_Frame_CIS_26
facet normal 1.0 -1.0846024932876529e-17 -5.352449686428362e-33
  outer loop
    vertex 114.7113066405773 -22.11966165224184 1.5000000000000078
    vertex 114.7113066405773 -152.11966165224183 11.500000000000007
    vertex 114.7113066405773 -152.11966165224183 1.5000000000000084
  endloop
endfacet
facet normal 1.0 -1.0846024932876529e-17 -5.352449686428362e-33
  outer loop
    vertex 114.7113066405773 -152.11966165224183 11.500000000000007
    vertex 114.7113066405773 -22.11966165224184 1.5000000000000078
    vertex 114.7113066405773 -22.11966165224184 11.500000000000007
  endloop
endfacet
facet normal 1.922013789247013e-16 6.352042362060197e-17 -1.0
  outer loop
    vertex 136.8160937367537 -14.313690152270913 1.1456113835350834e-14
    vertex 131.19460086176096 -22.11966165224184 1.127986593019159e-14
    vertex 129.1731079867682 -14.313690152270913 4.511946372076636e-14
  endloop
endfacet
facet normal 1.922013789247013e-16 6.352042362060197e-17 -1.0
  outer loop
    vertex 131.19460086176096 -22.11966165224184 1.127986593019159e-14
    vertex 136.8160937367537 -14.313690152270913 1.1456113835350834e-14
    vertex 134.79460086176096 -22.11966165224184 4.511946372076636e-14
  endloop
endfacet
facet normal 1.922013789247013e-16 6.352042362060197e-17 -1.0
  outer loop
    vertex 131.19460086176096 -22.11966165224184 1.127986593019159e-14
    vertex 113.2113066405773 -152.11966165224183 8.459899447643692e-15
    vertex 113.2113066405773 -22.11966165224184 7.754907827006718e-15
  endloop
endfacet
facet normal 1.922013789247013e-16 6.352042362060197e-17 -1.0
  outer loop
    vertex 113.2113066405773 -152.11966165224183 8.459899447643692e-15
    vertex 131.19460086176096 -22.11966165224184 1.127986593019159e-14
    vertex 128.9613066405773 -145.11966165224183 1.0046130594076817e-14
  endloop
endfacet
facet normal 1.922013789247013e-16 6.352042362060197e-17 -1.0
  outer loop
    vertex 128.9613066405773 -145.11966165224183 1.0046130594076817e-14
    vertex 131.19460086176096 -22.11966165224184 1.127986593019159e-14
    vertex 136.46130664057736 -145.11966165224183 9.164891068280651e-15
  endloop
endfacet
facet normal 1.922013789247013e-16 6.352042362060197e-17 -1.0
  outer loop
    vertex 136.46130664057736 -145.11966165224183 9.164891068280651e-15
    vertex 131.19460086176096 -22.11966165224184 1.127986593019159e-14
    vertex 134.79460086176096 -22.11966165224184 4.511946372076636e-14
  endloop
endfacet
facet normal 1.922013789247013e-16 6.352042362060197e-17 -1.0
  outer loop
    vertex 136.46130664057736 -145.11966165224183 9.164891068280651e-15
    vertex 134.79460086176096 -22.11966165224184 4.511946372076636e-14
    vertex 149.21130664057728 -22.11966165224184 1.762479051592436e-14
  endloop
endfacet
facet normal 1.922013789247013e-16 6.352042362060197e-17 -1.0
  outer loop
    vertex 136.46130664057736 -145.11966165224183 9.164891068280651e-15
    vertex 149.21130664057728 -22.11966165224184 1.762479051592436e-14
    vertex 149.21130664057725 -152.11966165224183 1.6919798895287383e-14
  endloop
endfacet
facet normal 1.922013789247013e-16 6.352042362060197e-17 -1.0
  outer loop
    vertex 149.21130664057725 -152.11966165224183 1.6919798895287383e-14
    vertex 134.7113066405773 -152.11966165224183 1.4099832412739488e-14
    vertex 136.46130664057736 -145.11966165224183 9.164891068280651e-15
  endloop
endfacet
facet normal 1.922013789247013e-16 6.352042362060197e-17 -1.0
  outer loop
    vertex 130.71130664057733 -152.11966165224183 3.101963130802687e-14
    vertex 113.2113066405773 -152.11966165224183 8.459899447643692e-15
    vertex 128.9613066405773 -145.11966165224183 1.0046130594076817e-14
  endloop
endfacet
facet normal -9.357161510272589e-16 1.7304339779271197e-17 1.0
  outer loop
    vertex 141.71130664057725 -142.11966165224183 4.50000000000002
    vertex 138.71130664057725 -22.11966165224184 4.500000000000016
    vertex 138.71130664057725 -142.11966165224183 4.500000000000017
  endloop
endfacet
facet normal -9.357161510272589e-16 1.7304339779271197e-17 1.0
  outer loop
    vertex 138.71130664057725 -22.11966165224184 4.500000000000016
    vertex 141.71130664057725 -142.11966165224183 4.50000000000002
    vertex 139.71130664057725 -22.11966165224184 4.500000000000016
  endloop
endfacet
facet normal -9.357161510272589e-16 1.7304339779271197e-17 1.0
  outer loop
    vertex 139.71130664057725 -22.11966165224184 4.500000000000016
    vertex 141.71130664057725 -142.11966165224183 4.50000000000002
    vertex 141.71130664057725 -22.11966165224184 4.500000000000018
  endloop
endfacet
facet normal 0.0 -1.0 0.0
  outer loop
    vertex 134.7113066405773 -152.11966165224183 1.4099832412739488e-14
    vertex 141.71130664057725 -152.11966165224183 1.5000000000000198
    vertex 134.7113066405773 -152.11966165224183 19.500000000000032
  endloop
endfacet
facet normal 0.0 -1.0 0.0
  outer loop
    vertex 141.71130664057725 -152.11966165224183 1.5000000000000198
    vertex 134.7113066405773 -152.11966165224183 1.4099832412739488e-14
    vertex 149.21130664057725 -152.11966165224183 1.6919798895287383e-14
  endloop
endfacet
facet normal 0.0 -1.0 0.0
  outer loop
    vertex 141.71130664057725 -152.11966165224183 1.5000000000000198
    vertex 149.21130664057725 -152.11966165224183 1.6919798895287383e-14
    vertex 149.21130664057725 -152.11966165224183 1.5000000000000198
  endloop
endfacet
facet normal 0.0 -1.0 0.0
  outer loop
    vertex 134.7113066405773 -152.11966165224183 19.500000000000032
    vertex 141.71130664057725 -152.11966165224183 1.5000000000000198
    vertex 141.71130664057725 -152.11966165224183 19.499999999999996
  endloop
endfacet
facet normal -1.4099832412739513e-16 1.3557531166095686e-17 1.0
  outer loop
    vertex 149.21130664057725 -152.11966165224183 1.5000000000000198
    vertex 141.71130664057725 -22.11966165224184 1.500000000000017
    vertex 141.71130664057725 -152.11966165224183 1.5000000000000198
  endloop
endfacet
facet normal -1.4099832412739513e-16 1.3557531166095686e-17 1.0
  outer loop
    vertex 141.71130664057725 -22.11966165224184 1.500000000000017
    vertex 149.21130664057725 -152.11966165224183 1.5000000000000198
    vertex 149.21130664057728 -22.11966165224184 1.500000000000019
  endloop
endfacet
facet normal -1.0 0.0 0.0
  outer loop
    vertex 113.2113066405773 -22.11966165224184 11.500000000000007
    vertex 113.2113066405773 -152.11966165224183 8.459899447643692e-15
    vertex 113.2113066405773 -152.11966165224183 11.500000000000007
  endloop
endfacet
facet normal -1.0 0.0 0.0
  outer loop
    vertex 113.2113066405773 -152.11966165224183 8.459899447643692e-15
    vertex 113.2113066405773 -22.11966165224184 11.500000000000007
    vertex 113.2113066405773 -22.11966165224184 7.754907827006718e-15
  endloop
endfacet
facet normal -3.1169485041044084e-16 4.863765621466851e-18 1.0
  outer loop
    vertex 138.71130664057725 -142.11966165224183 1.500000000000018
    vertex 127.71130664057729 -137.11966165224186 1.5000000000000093
    vertex 127.71130664057729 -142.11966165224186 1.5000000000000093
  endloop
endfacet
facet normal -3.1169485041044084e-16 4.863765621466851e-18 1.0
  outer loop
    vertex 127.71130664057729 -137.11966165224186 1.5000000000000093
    vertex 138.71130664057725 -142.11966165224183 1.500000000000018
    vertex 127.71130664057729 -107.11966165224187 1.5000000000000089
  endloop
endfacet
facet normal -3.1169485041044084e-16 4.863765621466851e-18 1.0
  outer loop
    vertex 127.71130664057729 -107.11966165224187 1.5000000000000089
    vertex 138.71130664057725 -142.11966165224183 1.500000000000018
    vertex 127.71130664057729 -22.11966165224184 1.5000000000000093
  endloop
endfacet
facet normal -3.1169485041044084e-16 4.863765621466851e-18 1.0
  outer loop
    vertex 127.71130664057729 -22.11966165224184 1.5000000000000093
    vertex 138.71130664057725 -142.11966165224183 1.500000000000018
    vertex 131.19460086176096 -22.11966165224184 1.5000000000000113
  endloop
endfacet
facet normal -3.1169485041044084e-16 4.863765621466851e-18 1.0
  outer loop
    vertex 131.19460086176096 -22.11966165224184 1.5000000000000113
    vertex 138.71130664057725 -142.11966165224183 1.500000000000018
    vertex 134.79460086176096 -22.11966165224184 1.5000000000000135
  endloop
endfacet
facet normal -3.1169485041044084e-16 4.863765621466851e-18 1.0
  outer loop
    vertex 134.79460086176096 -22.11966165224184 1.5000000000000135
    vertex 138.71130664057725 -142.11966165224183 1.500000000000018
    vertex 138.71130664057725 -22.11966165224184 1.5000000000000155
  endloop
endfacet
facet normal -3.1169485041044084e-16 4.863765621466851e-18 1.0
  outer loop
    vertex 131.19460086176096 -22.11966165224184 1.5000000000000113
    vertex 136.8160937367537 -14.313690152270913 1.5000000000000113
    vertex 129.1731079867682 -14.313690152270913 1.5000000000000113
  endloop
endfacet
facet normal -3.1169485041044084e-16 4.863765621466851e-18 1.0
  outer loop
    vertex 136.8160937367537 -14.313690152270913 1.5000000000000113
    vertex 131.19460086176096 -22.11966165224184 1.5000000000000113
    vertex 134.79460086176096 -22.11966165224184 1.5000000000000135
  endloop
endfacet
facet normal -3.1169485041044084e-16 4.863765621466851e-18 1.0
  outer loop
    vertex 127.71130664057729 -137.11966165224186 1.5000000000000093
    vertex 123.71130664057729 -107.11966165224187 1.5000000000000184
    vertex 123.71130664057729 -137.11966165224186 1.5000000000000075
  endloop
endfacet
facet normal -3.1169485041044084e-16 4.863765621466851e-18 1.0
  outer loop
    vertex 123.71130664057729 -107.11966165224187 1.5000000000000184
    vertex 127.71130664057729 -137.11966165224186 1.5000000000000093
    vertex 127.71130664057729 -107.11966165224187 1.5000000000000089
  endloop
endfacet
facet normal -3.1169485041044084e-16 4.863765621466851e-18 1.0
  outer loop
    vertex 123.71130664057729 -152.11966165224183 1.500000000000007
    vertex 114.7113066405773 -22.11966165224184 1.5000000000000078
    vertex 114.7113066405773 -152.11966165224183 1.5000000000000084
  endloop
endfacet
facet normal -3.1169485041044084e-16 4.863765621466851e-18 1.0
  outer loop
    vertex 114.7113066405773 -22.11966165224184 1.5000000000000078
    vertex 123.71130664057729 -152.11966165224183 1.500000000000007
    vertex 123.71130664057729 -22.11966165224184 1.5000000000000078
  endloop
endfacet
facet normal -3.1169485041044084e-16 4.863765621466851e-18 1.0
  outer loop
    vertex 123.71130664057729 -22.11966165224184 1.5000000000000078
    vertex 123.71130664057729 -152.11966165224183 1.500000000000007
    vertex 123.71130664057729 -137.11966165224186 1.5000000000000075
  endloop
endfacet
facet normal -3.1169485041044084e-16 4.863765621466851e-18 1.0
  outer loop
    vertex 123.71130664057729 -22.11966165224184 1.5000000000000078
    vertex 123.71130664057729 -137.11966165224186 1.5000000000000075
    vertex 123.71130664057729 -107.11966165224187 1.5000000000000184
  endloop
endfacet
facet normal -1.7155945940963014e-15 1.0 1.3650605316483459e-16
  outer loop
    vertex 127.71130664057729 -142.11966165224186 19.5
    vertex 138.71130664057725 -142.11966165224183 1.500000000000018
    vertex 127.71130664057729 -142.11966165224186 1.5000000000000093
  endloop
endfacet
facet normal -1.7155945940963014e-15 1.0 1.3650605316483459e-16
  outer loop
    vertex 138.71130664057725 -142.11966165224183 1.500000000000018
    vertex 127.71130664057729 -142.11966165224186 19.5
    vertex 138.71130664057725 -142.11966165224183 4.500000000000017
  endloop
endfacet
facet normal -1.7155945940963014e-15 1.0 1.3650605316483459e-16
  outer loop
    vertex 138.71130664057725 -142.11966165224183 4.500000000000017
    vertex 127.71130664057729 -142.11966165224186 19.5
    vertex 141.71130664057725 -142.11966165224183 4.50000000000002
  endloop
endfacet
facet normal -1.7155945940963014e-15 1.0 1.3650605316483459e-16
  outer loop
    vertex 141.71130664057725 -142.11966165224183 4.50000000000002
    vertex 127.71130664057729 -142.11966165224186 19.5
    vertex 141.71130664057725 -142.11966165224183 19.499999999999996
  endloop
endfacet
facet normal -1.0 0.0 0.0
  outer loop
    vertex 123.71130664057729 -137.11966165224186 19.50000000000001
    vertex 123.71130664057729 -152.11966165224183 1.500000000000007
    vertex 123.71130664057729 -152.11966165224183 19.50000000000002
  endloop
endfacet
facet normal -1.0 0.0 0.0
  outer loop
    vertex 123.71130664057729 -152.11966165224183 1.500000000000007
    vertex 123.71130664057729 -137.11966165224186 19.50000000000001
    vertex 123.71130664057729 -137.11966165224186 1.5000000000000075
  endloop
endfacet
facet normal 1.0 2.4620564277701958e-17 -3.951448587779323e-16
  outer loop
    vertex 141.71130664057725 -152.11966165224183 1.5000000000000198
    vertex 141.71130664057725 -142.11966165224183 4.50000000000002
    vertex 141.71130664057725 -152.11966165224183 19.499999999999996
  endloop
endfacet
facet normal 1.0 2.4620564277701958e-17 -3.951448587779323e-16
  outer loop
    vertex 141.71130664057725 -142.11966165224183 4.50000000000002
    vertex 141.71130664057725 -152.11966165224183 1.5000000000000198
    vertex 141.71130664057725 -22.11966165224184 1.500000000000017
  endloop
endfacet
facet normal 1.0 2.4620564277701958e-17 -3.951448587779323e-16
  outer loop
    vertex 141.71130664057725 -142.11966165224183 4.50000000000002
    vertex 141.71130664057725 -22.11966165224184 1.500000000000017
    vertex 141.71130664057725 -22.11966165224184 4.500000000000018
  endloop
endfacet
facet normal 1.0 2.4620564277701958e-17 -3.951448587779323e-16
  outer loop
    vertex 141.71130664057725 -142.11966165224183 19.499999999999996
    vertex 141.71130664057725 -152.11966165224183 19.499999999999996
    vertex 141.71130664057725 -142.11966165224183 4.50000000000002
  endloop
endfacet
facet normal 1.0 -0.0 -0.0
  outer loop
    vertex 127.71130664057729 -137.11966165224186 1.5000000000000093
    vertex 127.71130664057729 -142.11966165224186 19.5
    vertex 127.71130664057729 -142.11966165224186 1.5000000000000093
  endloop
endfacet
facet normal 1.0 -0.0 -0.0
  outer loop
    vertex 127.71130664057729 -142.11966165224186 19.5
    vertex 127.71130664057729 -137.11966165224186 1.5000000000000093
    vertex 127.71130664057729 -137.11966165224186 19.5
  endloop
endfacet
facet normal 0.0 -1.0 0.0
  outer loop
    vertex 130.71130664057733 -152.11966165224183 19.499999999999996
    vertex 123.71130664057729 -152.11966165224183 1.500000000000007
    vertex 130.71130664057733 -152.11966165224183 3.101963130802687e-14
  endloop
endfacet
facet normal 0.0 -1.0 0.0
  outer loop
    vertex 123.71130664057729 -152.11966165224183 1.500000000000007
    vertex 130.71130664057733 -152.11966165224183 19.499999999999996
    vertex 123.71130664057729 -152.11966165224183 19.50000000000002
  endloop
endfacet
facet normal 0.0 -1.0 0.0
  outer loop
    vertex 113.2113066405773 -152.11966165224183 8.459899447643692e-15
    vertex 114.7113066405773 -152.11966165224183 1.5000000000000084
    vertex 113.2113066405773 -152.11966165224183 11.500000000000007
  endloop
endfacet
facet normal 0.0 -1.0 0.0
  outer loop
    vertex 114.7113066405773 -152.11966165224183 1.5000000000000084
    vertex 113.2113066405773 -152.11966165224183 8.459899447643692e-15
    vertex 130.71130664057733 -152.11966165224183 3.101963130802687e-14
  endloop
endfacet
facet normal 0.0 -1.0 0.0
  outer loop
    vertex 114.7113066405773 -152.11966165224183 1.5000000000000084
    vertex 130.71130664057733 -152.11966165224183 3.101963130802687e-14
    vertex 123.71130664057729 -152.11966165224183 1.500000000000007
  endloop
endfacet
facet normal 0.0 -1.0 0.0
  outer loop
    vertex 113.2113066405773 -152.11966165224183 11.500000000000007
    vertex 114.7113066405773 -152.11966165224183 1.5000000000000084
    vertex 114.7113066405773 -152.11966165224183 11.500000000000007
  endloop
endfacet
facet normal 1.0 -2.1692049865753058e-16 0.0
  outer loop
    vertex 149.21130664057728 -22.11966165224184 1.762479051592436e-14
    vertex 149.21130664057725 -152.11966165224183 1.5000000000000198
    vertex 149.21130664057725 -152.11966165224183 1.6919798895287383e-14
  endloop
endfacet
facet normal 1.0 -2.1692049865753058e-16 0.0
  outer loop
    vertex 149.21130664057725 -152.11966165224183 1.5000000000000198
    vertex 149.21130664057728 -22.11966165224184 1.762479051592436e-14
    vertex 149.21130664057728 -22.11966165224184 1.500000000000019
  endloop
endfacet
facet normal 0.0 0.0 1.0
  outer loop
    vertex 114.7113066405773 -152.11966165224183 11.500000000000007
    vertex 113.2113066405773 -22.11966165224184 11.500000000000007
    vertex 113.2113066405773 -152.11966165224183 11.500000000000007
  endloop
endfacet
facet normal 0.0 0.0 1.0
  outer loop
    vertex 113.2113066405773 -22.11966165224184 11.500000000000007
    vertex 114.7113066405773 -152.11966165224183 11.500000000000007
    vertex 114.7113066405773 -22.11966165224184 11.500000000000007
  endloop
endfacet
facet normal -0.0 1.0 -0.0
  outer loop
    vertex 138.71130664057725 -22.11966165224184 4.500000000000016
    vertex 141.71130664057725 -22.11966165224184 1.500000000000017
    vertex 138.71130664057725 -22.11966165224184 1.5000000000000155
  endloop
endfacet
facet normal -0.0 1.0 -0.0
  outer loop
    vertex 141.71130664057725 -22.11966165224184 1.500000000000017
    vertex 138.71130664057725 -22.11966165224184 4.500000000000016
    vertex 141.71130664057725 -22.11966165224184 4.500000000000018
  endloop
endfacet
facet normal -0.0 1.0 -0.0
  outer loop
    vertex 141.71130664057725 -22.11966165224184 4.500000000000018
    vertex 138.71130664057725 -22.11966165224184 4.500000000000016
    vertex 139.71130664057725 -22.11966165224184 4.500000000000016
  endloop
endfacet
facet normal -0.0 1.0 -0.0
  outer loop
    vertex 134.79460086176096 -22.11966165224184 4.511946372076636e-14
    vertex 149.21130664057728 -22.11966165224184 1.500000000000019
    vertex 149.21130664057728 -22.11966165224184 1.762479051592436e-14
  endloop
endfacet
facet normal -0.0 1.0 -0.0
  outer loop
    vertex 149.21130664057728 -22.11966165224184 1.500000000000019
    vertex 134.79460086176096 -22.11966165224184 4.511946372076636e-14
    vertex 134.79460086176096 -22.11966165224184 1.5000000000000135
  endloop
endfacet
facet normal -0.0 1.0 -0.0
  outer loop
    vertex 149.21130664057728 -22.11966165224184 1.500000000000019
    vertex 134.79460086176096 -22.11966165224184 1.5000000000000135
    vertex 138.71130664057725 -22.11966165224184 1.5000000000000155
  endloop
endfacet
facet normal -0.0 1.0 -0.0
  outer loop
    vertex 149.21130664057728 -22.11966165224184 1.500000000000019
    vertex 138.71130664057725 -22.11966165224184 1.5000000000000155
    vertex 141.71130664057725 -22.11966165224184 1.500000000000017
  endloop
endfacet
facet normal -0.0 1.0 -0.0
  outer loop
    vertex 113.2113066405773 -22.11966165224184 7.754907827006718e-15
    vertex 114.7113066405773 -22.11966165224184 1.5000000000000078
    vertex 131.19460086176096 -22.11966165224184 1.127986593019159e-14
  endloop
endfacet
facet normal -0.0 1.0 -0.0
  outer loop
    vertex 114.7113066405773 -22.11966165224184 1.5000000000000078
    vertex 113.2113066405773 -22.11966165224184 7.754907827006718e-15
    vertex 113.2113066405773 -22.11966165224184 11.500000000000007
  endloop
endfacet
facet normal -0.0 1.0 -0.0
  outer loop
    vertex 114.7113066405773 -22.11966165224184 1.5000000000000078
    vertex 113.2113066405773 -22.11966165224184 11.500000000000007
    vertex 114.7113066405773 -22.11966165224184 11.500000000000007
  endloop
endfacet
facet normal -0.0 1.0 -0.0
  outer loop
    vertex 123.71130664057728 -22.11966165224184 19.50000000000001
    vertex 127.71130664057729 -22.11966165224184 1.5000000000000093
    vertex 123.71130664057729 -22.11966165224184 1.5000000000000078
  endloop
endfacet
facet normal -0.0 1.0 -0.0
  outer loop
    vertex 127.71130664057729 -22.11966165224184 1.5000000000000093
    vertex 123.71130664057728 -22.11966165224184 19.50000000000001
    vertex 127.71130664057729 -22.11966165224184 19.50000000000001
  endloop
endfacet
facet normal -0.0 1.0 -0.0
  outer loop
    vertex 131.19460086176096 -22.11966165224184 1.127986593019159e-14
    vertex 127.71130664057729 -22.11966165224184 1.5000000000000093
    vertex 131.19460086176096 -22.11966165224184 1.5000000000000113
  endloop
endfacet
facet normal -0.0 1.0 -0.0
  outer loop
    vertex 127.71130664057729 -22.11966165224184 1.5000000000000093
    vertex 131.19460086176096 -22.11966165224184 1.127986593019159e-14
    vertex 123.71130664057729 -22.11966165224184 1.5000000000000078
  endloop
endfacet
facet normal -0.0 1.0 -0.0
  outer loop
    vertex 123.71130664057729 -22.11966165224184 1.5000000000000078
    vertex 131.19460086176096 -22.11966165224184 1.127986593019159e-14
    vertex 114.7113066405773 -22.11966165224184 1.5000000000000078
  endloop
endfacet
facet normal -0.0 1.0 -0.0
  outer loop
    vertex 129.1731079867682 -14.313690152270913 4.511946372076636e-14
    vertex 136.8160937367537 -14.313690152270913 1.5000000000000113
    vertex 136.8160937367537 -14.313690152270913 1.1456113835350834e-14
  endloop
endfacet
facet normal -0.0 1.0 -0.0
  outer loop
    vertex 136.8160937367537 -14.313690152270913 1.5000000000000113
    vertex 129.1731079867682 -14.313690152270913 4.511946372076636e-14
    vertex 129.1731079867682 -14.313690152270913 1.5000000000000113
  endloop
endfacet
facet normal 0.9680654772930206 -0.2506974903612644 -6.039323270208995e-17
  outer loop
    vertex 136.8160937367537 -14.313690152270913 1.1456113835350834e-14
    vertex 134.79460086176096 -22.11966165224184 1.5000000000000135
    vertex 134.79460086176096 -22.11966165224184 4.511946372076636e-14
  endloop
endfacet
facet normal 0.9680654772930206 -0.2506974903612644 -6.039323270208995e-17
  outer loop
    vertex 134.79460086176096 -22.11966165224184 1.5000000000000135
    vertex 136.8160937367537 -14.313690152270913 1.1456113835350834e-14
    vertex 136.8160937367537 -14.313690152270913 1.5000000000000113
  endloop
endfacet
facet normal -0.9680654772930194 -0.25069749036126965 2.800761045781023e-17
  outer loop
    vertex 129.1731079867682 -14.313690152270913 1.5000000000000113
    vertex 131.19460086176096 -22.11966165224184 1.127986593019159e-14
    vertex 131.19460086176096 -22.11966165224184 1.5000000000000113
  endloop
endfacet
facet normal -0.9680654772930194 -0.25069749036126965 2.800761045781023e-17
  outer loop
    vertex 131.19460086176096 -22.11966165224184 1.127986593019159e-14
    vertex 129.1731079867682 -14.313690152270913 1.5000000000000113
    vertex 129.1731079867682 -14.313690152270913 4.511946372076636e-14
  endloop
endfacet
facet normal -1.0 0.0 0.0
  outer loop
    vertex 138.71130664057725 -22.11966165224184 4.500000000000016
    vertex 138.71130664057725 -142.11966165224183 1.500000000000018
    vertex 138.71130664057725 -142.11966165224183 4.500000000000017
  endloop
endfacet
facet normal -1.0 0.0 0.0
  outer loop
    vertex 138.71130664057725 -142.11966165224183 1.500000000000018
    vertex 138.71130664057725 -22.11966165224184 4.500000000000016
    vertex 138.71130664057725 -22.11966165224184 1.5000000000000155
  endloop
endfacet
facet normal 1.0 -0.0 -0.0
  outer loop
    vertex 127.71130664057729 -22.11966165224184 1.5000000000000093
    vertex 127.71130664057729 -107.11966165224187 19.50000000000001
    vertex 127.71130664057729 -107.11966165224187 1.5000000000000089
  endloop
endfacet
facet normal 1.0 -0.0 -0.0
  outer loop
    vertex 127.71130664057729 -107.11966165224187 19.50000000000001
    vertex 127.71130664057729 -22.11966165224184 1.5000000000000093
    vertex 127.71130664057729 -22.11966165224184 19.50000000000001
  endloop
endfacet
facet normal 1.695692043515479e-32 3.317607626526938e-17 1.0
  outer loop
    vertex 123.71130664057729 -107.11966165224187 19.50000000000001
    vertex 127.71130664057729 -22.11966165224184 19.50000000000001
    vertex 123.71130664057728 -22.11966165224184 19.50000000000001
  endloop
endfacet
facet normal 1.695692043515479e-32 3.317607626526938e-17 1.0
  outer loop
    vertex 127.71130664057729 -22.11966165224184 19.50000000000001
    vertex 123.71130664057729 -107.11966165224187 19.50000000000001
    vertex 127.71130664057729 -107.11966165224187 19.50000000000001
  endloop
endfacet
facet normal -1.0 -1.1897627350303506e-16 -5.834413412168065e-16
  outer loop
    vertex 123.71130664057728 -22.11966165224184 19.50000000000001
    vertex 123.71130664057729 -107.11966165224187 4.5000000000000115
    vertex 123.71130664057729 -107.11966165224187 19.50000000000001
  endloop
endfacet
facet normal -1.0 -1.1897627350303506e-16 -5.834413412168065e-16
  outer loop
    vertex 123.71130664057729 -107.11966165224187 4.5000000000000115
    vertex 123.71130664057728 -22.11966165224184 19.50000000000001
    vertex 123.71130664057729 -107.11966165224187 1.5000000000000184
  endloop
endfacet
facet normal -1.0 -1.1897627350303506e-16 -5.834413412168065e-16
  outer loop
    vertex 123.71130664057729 -107.11966165224187 1.5000000000000184
    vertex 123.71130664057728 -22.11966165224184 19.50000000000001
    vertex 123.71130664057729 -22.11966165224184 1.5000000000000078
  endloop
endfacet
facet normal 0.0 -1.0 0.0
  outer loop
    vertex 127.71130664057729 -107.11966165224187 19.50000000000001
    vertex 123.71130664057729 -107.11966165224187 1.5000000000000184
    vertex 127.71130664057729 -107.11966165224187 1.5000000000000089
  endloop
endfacet
facet normal 0.0 -1.0 0.0
  outer loop
    vertex 123.71130664057729 -107.11966165224187 1.5000000000000184
    vertex 127.71130664057729 -107.11966165224187 19.50000000000001
    vertex 123.71130664057729 -107.11966165224187 4.5000000000000115
  endloop
endfacet
facet normal 0.0 -1.0 0.0
  outer loop
    vertex 123.71130664057729 -107.11966165224187 4.5000000000000115
    vertex 127.71130664057729 -107.11966165224187 19.50000000000001
    vertex 123.71130664057729 -107.11966165224187 19.50000000000001
  endloop
endfacet
facet normal -0.0 1.0 -0.0
  outer loop
    vertex 123.71130664057729 -137.11966165224186 19.50000000000001
    vertex 127.71130664057729 -137.11966165224186 1.5000000000000093
    vertex 123.71130664057729 -137.11966165224186 1.5000000000000075
  endloop
endfacet
facet normal -0.0 1.0 -0.0
  outer loop
    vertex 127.71130664057729 -137.11966165224186 1.5000000000000093
    vertex 123.71130664057729 -137.11966165224186 19.50000000000001
    vertex 127.71130664057729 -137.11966165224186 19.5
  endloop
endfacet
facet normal -0.9701425001453319 0.24253562503633377 -1.1221645563326186e-15
  outer loop
    vertex 136.4613066405773 -145.11966165224183 19.49999999999997
    vertex 134.7113066405773 -152.11966165224183 1.4099832412739488e-14
    vertex 134.7113066405773 -152.11966165224183 19.500000000000032
  endloop
endfacet
facet normal -0.9701425001453319 0.24253562503633377 -1.1221645563326186e-15
  outer loop
    vertex 134.7113066405773 -152.11966165224183 1.4099832412739488e-14
    vertex 136.4613066405773 -145.11966165224183 19.49999999999997
    vertex 136.46130664057736 -145.11966165224183 9.164891068280651e-15
  endloop
endfacet
facet normal 0.0 -1.0 0.0
  outer loop
    vertex 136.4613066405773 -145.11966165224183 19.49999999999997
    vertex 128.9613066405773 -145.11966165224183 1.0046130594076817e-14
    vertex 136.46130664057736 -145.11966165224183 9.164891068280651e-15
  endloop
endfacet
facet normal 0.0 -1.0 0.0
  outer loop
    vertex 128.9613066405773 -145.11966165224183 1.0046130594076817e-14
    vertex 136.4613066405773 -145.11966165224183 19.49999999999997
    vertex 128.96130664057728 -145.11966165224183 19.50000000000001
  endloop
endfacet
facet normal 1.1993606475361572e-15 1.002345473186867e-15 1.0
  outer loop
    vertex 130.71130664057733 -152.11966165224183 19.499999999999996
    vertex 123.71130664057729 -137.11966165224186 19.50000000000001
    vertex 123.71130664057729 -152.11966165224183 19.50000000000002
  endloop
endfacet
facet normal 1.1993606475361572e-15 1.002345473186867e-15 1.0
  outer loop
    vertex 123.71130664057729 -137.11966165224186 19.50000000000001
    vertex 130.71130664057733 -152.11966165224183 19.499999999999996
    vertex 127.71130664057729 -142.11966165224186 19.5
  endloop
endfacet
facet normal 1.1993606475361572e-15 1.002345473186867e-15 1.0
  outer loop
    vertex 127.71130664057729 -142.11966165224186 19.5
    vertex 130.71130664057733 -152.11966165224183 19.499999999999996
    vertex 128.96130664057728 -145.11966165224183 19.50000000000001
  endloop
endfacet
facet normal 1.1993606475361572e-15 1.002345473186867e-15 1.0
  outer loop
    vertex 141.71130664057725 -152.11966165224183 19.499999999999996
    vertex 136.4613066405773 -145.11966165224183 19.49999999999997
    vertex 134.7113066405773 -152.11966165224183 19.500000000000032
  endloop
endfacet
facet normal 1.1993606475361572e-15 1.002345473186867e-15 1.0
  outer loop
    vertex 128.96130664057728 -145.11966165224183 19.50000000000001
    vertex 141.71130664057725 -142.11966165224183 19.499999999999996
    vertex 127.71130664057729 -142.11966165224186 19.5
  endloop
endfacet
facet normal 1.1993606475361572e-15 1.002345473186867e-15 1.0
  outer loop
    vertex 141.71130664057725 -142.11966165224183 19.499999999999996
    vertex 128.96130664057728 -145.11966165224183 19.50000000000001
    vertex 136.4613066405773 -145.11966165224183 19.49999999999997
  endloop
endfacet
facet normal 1.1993606475361572e-15 1.002345473186867e-15 1.0
  outer loop
    vertex 141.71130664057725 -142.11966165224183 19.499999999999996
    vertex 136.4613066405773 -145.11966165224183 19.49999999999997
    vertex 141.71130664057725 -152.11966165224183 19.499999999999996
  endloop
endfacet
facet normal 1.1993606475361572e-15 1.002345473186867e-15 1.0
  outer loop
    vertex 127.71130664057729 -137.11966165224186 19.5
    vertex 123.71130664057729 -137.11966165224186 19.50000000000001
    vertex 127.71130664057729 -142.11966165224186 19.5
  endloop
endfacet
facet normal 0.9701425001453307 0.2425356250363381 5.653653489920069e-16
  outer loop
    vertex 128.9613066405773 -145.11966165224183 1.0046130594076817e-14
    vertex 130.71130664057733 -152.11966165224183 19.499999999999996
    vertex 130.71130664057733 -152.11966165224183 3.101963130802687e-14
  endloop
endfacet
facet normal 0.9701425001453307 0.2425356250363381 5.653653489920069e-16
  outer loop
    vertex 130.71130664057733 -152.11966165224183 19.499999999999996
    vertex 128.9613066405773 -145.11966165224183 1.0046130594076817e-14
    vertex 128.96130664057728 -145.11966165224183 19.50000000000001
  endloop
endfacet
endsolid V3_Frame_CIS_26
